<?xml version="1.0" encoding="UTF-8" standalone="no"?>
<!DOCTYPE svg PUBLIC "-//W3C//DTD SVG 1.1//EN" "http://www.w3.org/Graphics/SVG/1.1/DTD/svg11.dtd">
<svg version="1.1" xmlns="http://www.w3.org/2000/svg" xmlns:xlink="http://www.w3.org/1999/xlink" preserveAspectRatio="xMidYMid meet" viewBox="-1 37.62605042016806 638 622.0220092521008" width="634" height="618.02"><defs><path d="M197.62 361L198.24 367.98L199.09 374.9L200.18 381.75L201.5 388.53L203.05 395.24L204.82 401.86L206.81 408.39L209.02 414.83L211.44 421.18L214.07 427.43L216.91 433.57L219.94 439.6L223.17 445.52L226.6 451.32L230.21 457L234.02 462.54L238 467.96L242.16 473.23L246.5 478.37L251 483.35L255.68 488.19L260.51 492.87L265.51 497.38L270.66 501.74L275.96 505.92L281.41 509.92L287.01 513.75L292.74 517.39L298.61 520.85L304.62 524.11L310.75 527.17L317 530.03L323.38 532.68L329.88 535.12L336.49 537.34L343.21 539.34L350.03 541.11L356.96 542.65L352.55 543.5L348.13 544.24L343.7 544.88L339.27 545.43L334.84 545.87L330.41 546.21L325.98 546.46L321.55 546.61L317.13 546.65L312.71 546.6L308.3 546.46L303.9 546.21L299.51 545.87L295.13 545.43L290.77 544.9L286.42 544.27L282.08 543.55L277.77 542.73L273.48 541.82L269.2 540.81L264.95 539.71L260.73 538.52L256.53 537.23L252.36 535.86L248.21 534.39L244.1 532.82L240.03 531.17L235.98 529.43L231.97 527.59L228 525.67L224.07 523.66L220.18 521.55L216.33 519.36L212.52 517.08L208.76 514.71L205.05 512.26L201.38 509.72L197.77 507.09L194.2 504.37L190.69 501.57L187.24 498.69L183.87 495.74L180.57 492.72L177.35 489.63L174.2 486.49L171.13 483.27L168.13 480L165.21 476.67L162.38 473.27L159.62 469.82L156.94 466.32L154.34 462.75L151.82 459.14L149.39 455.47L147.04 451.76L144.77 447.99L142.59 444.18L140.49 440.32L138.48 436.42L136.55 432.48L134.71 428.49L132.96 424.47L131.29 420.4L129.72 416.3L128.23 412.16L126.84 407.99L125.54 403.79L124.32 399.56L123.21 395.29L122.18 391L121.25 386.68L120.41 382.34L119.67 377.97L119.03 373.58L118.48 369.17L118.03 364.74L117.67 360.29L117.42 355.83L117.26 351.35L117.21 346.86L197.13 346.86L197.25 353.96L197.62 361Z" id="b3ogfQ8pH8"></path><path d="M325.98 148.04L330.41 148.29L334.84 148.63L339.27 149.08L343.7 149.62L348.13 150.26L352.55 151.01L356.96 151.85L350.03 153.39L343.21 155.17L336.49 157.17L329.88 159.39L323.38 161.83L317 164.48L310.75 167.34L304.62 170.4L298.61 173.66L292.74 177.11L287.01 180.75L281.41 184.58L275.96 188.59L270.66 192.77L265.51 197.12L260.51 201.64L255.68 206.32L251 211.15L246.5 216.14L242.16 221.27L238 226.55L234.02 231.96L230.21 237.51L226.6 243.18L223.17 248.98L219.94 254.9L216.91 260.93L214.07 267.07L211.44 273.32L209.02 279.67L206.81 286.11L204.82 292.65L203.05 299.27L201.5 305.97L200.18 312.75L199.09 319.6L198.24 326.52L197.62 333.51L197.25 340.55L197.13 347.64L117.21 347.64L117.26 343.15L117.42 338.67L117.67 334.21L118.03 329.76L118.48 325.33L119.03 320.92L119.67 316.53L120.41 312.17L121.25 307.82L122.18 303.5L123.21 299.21L124.32 294.95L125.54 290.71L126.84 286.51L128.23 282.34L129.72 278.2L131.29 274.1L132.96 270.04L134.71 266.01L136.55 262.03L138.48 258.08L140.49 254.18L142.59 250.32L144.77 246.51L147.04 242.75L149.39 239.03L151.82 235.36L154.34 231.75L156.94 228.19L159.62 224.68L162.38 221.23L165.21 217.84L168.13 214.5L171.13 211.23L174.2 208.02L177.35 204.87L180.57 201.79L183.87 198.77L187.24 195.82L190.69 192.94L194.2 190.14L197.77 187.42L201.38 184.79L205.05 182.25L208.76 179.79L212.52 177.42L216.33 175.14L220.18 172.95L224.07 170.85L228 168.83L231.97 166.91L235.98 165.08L240.03 163.33L244.1 161.68L248.21 160.12L252.36 158.65L256.53 157.27L260.73 155.98L264.95 154.79L269.2 153.69L273.48 152.68L277.77 151.77L282.08 150.95L286.42 150.23L290.77 149.6L295.13 149.07L299.51 148.63L303.9 148.29L308.3 148.05L312.71 147.9L317.13 147.85L321.55 147.9L325.98 148.04Z" id="a1LtvYyGST"></path><path d="M334.45 135.24L343.04 136.11L351.52 137.32L359.89 138.87L368.15 140.73L376.28 142.92L384.29 145.41L392.15 148.21L399.87 151.3L407.44 154.69L414.85 158.35L422.1 162.29L429.17 166.5L436.07 170.98L442.78 175.7L449.29 180.68L455.61 185.89L461.72 191.34L467.62 197.02L473.3 202.92L478.75 209.03L483.96 215.35L488.94 221.86L493.66 228.57L498.14 235.47L502.35 242.54L506.29 249.79L509.95 257.2L513.34 264.77L516.43 272.49L519.23 280.35L521.72 288.36L523.9 296.49L525.77 304.75L527.31 313.12L528.53 321.6L529.4 330.19L529.93 338.87L530.11 347.64L530.11 347.64L529.93 356.41L529.4 365.09L528.53 373.67L527.32 382.16L525.77 390.53L523.91 398.79L521.72 406.92L519.23 414.92L516.43 422.79L513.34 430.51L509.95 438.08L506.29 445.49L502.35 452.73L498.14 459.81L493.66 466.7L488.94 473.41L483.96 479.93L478.75 486.25L473.3 492.36L467.62 498.25L461.72 503.93L455.61 509.38L449.3 514.6L442.78 519.57L436.07 524.3L429.17 528.77L422.1 532.98L414.85 536.92L407.44 540.59L399.87 543.97L392.15 547.06L384.29 549.86L376.29 552.36L368.15 554.54L359.9 556.41L351.52 557.95L343.04 559.16L334.45 560.04L325.77 560.57L317 560.74L308.23 560.57L299.55 560.04L290.96 559.16L282.48 557.95L274.11 556.41L265.85 554.54L257.72 552.36L249.71 549.86L241.85 547.06L234.13 543.97L226.56 540.59L219.15 536.92L211.9 532.98L204.83 528.77L197.93 524.3L191.22 519.57L184.71 514.6L178.39 509.38L172.28 503.93L166.38 498.25L160.7 492.36L155.25 486.25L150.04 479.93L145.06 473.41L140.34 466.7L135.86 459.81L131.65 452.73L127.71 445.49L124.05 438.08L120.66 430.51L117.57 422.79L114.77 414.92L112.28 406.92L110.1 398.79L108.23 390.53L106.69 382.16L105.47 373.67L104.6 365.09L104.07 356.41L103.89 347.64L104.07 338.87L104.6 330.19L105.47 321.6L106.68 313.12L108.23 304.75L110.09 296.49L112.28 288.36L114.77 280.35L117.57 272.49L120.66 264.77L124.05 257.2L127.71 249.79L131.65 242.54L135.86 235.47L140.34 228.57L145.06 221.86L150.04 215.35L155.25 209.03L160.7 202.92L166.38 197.02L172.28 191.34L178.39 185.89L184.7 180.68L191.22 175.7L197.93 170.98L204.83 166.5L211.9 162.29L219.15 158.35L226.56 154.69L234.13 151.3L241.85 148.21L249.71 145.41L257.71 142.92L265.85 140.73L274.1 138.87L282.48 137.32L290.96 136.11L299.55 135.24L308.23 134.71L317 134.53L325.77 134.71L334.45 135.24ZM302.39 161.74L295.19 162.44L288.08 163.41L281.05 164.65L274.12 166.14L267.29 167.9L260.55 169.9L253.93 172.15L247.41 174.64L241.02 177.36L234.75 180.31L228.61 183.48L222.61 186.87L216.74 190.48L211.02 194.29L205.45 198.31L200.03 202.52L194.78 206.92L189.69 211.51L184.78 216.28L180.04 221.23L175.48 226.35L171.11 231.63L166.93 237.07L162.96 242.67L159.18 248.42L155.61 254.31L152.26 260.34L149.12 266.5L146.21 272.79L143.53 279.21L141.09 285.74L138.88 292.39L136.93 299.14L135.22 305.99L133.76 312.94L132.57 319.98L131.65 327.11L131 334.32L503 334.32L503 334.32L131 334.32L131 334.32L117.21 334.32L116.66 334.33L116.12 334.36L115.58 334.41L115.05 334.49L114.53 334.59L114.01 334.7L113.5 334.84L113 334.99L112.51 335.17L112.03 335.36L111.55 335.57L111.09 335.8L110.64 336.05L110.19 336.31L109.76 336.59L109.34 336.88L108.94 337.2L108.54 337.52L108.16 337.86L107.79 338.22L107.44 338.58L107.1 338.97L106.77 339.36L106.46 339.77L106.17 340.19L105.89 340.62L105.62 341.06L105.38 341.51L105.15 341.98L104.94 342.45L104.74 342.93L104.57 343.42L104.41 343.92L104.28 344.43L104.16 344.95L104.07 345.47L103.99 346L103.93 346.54L103.9 347.09L103.89 347.63L103.89 347.64L103.9 348.19L103.93 348.73L103.99 349.27L104.07 349.8L104.16 350.32L104.28 350.84L104.41 351.35L104.57 351.85L104.74 352.34L104.94 352.82L105.15 353.3L105.38 353.76L105.62 354.21L105.89 354.66L106.17 355.09L106.46 355.51L106.77 355.91L107.1 356.31L107.44 356.69L107.79 357.06L108.16 357.41L108.54 357.75L108.94 358.08L109.34 358.39L109.76 358.68L110.19 358.96L110.64 359.23L111.09 359.47L111.55 359.7L112.03 359.91L112.51 360.11L113 360.28L113.5 360.44L114.01 360.57L114.53 360.69L115.05 360.78L115.58 360.86L116.12 360.91L116.66 360.95L117.21 360.96L131 360.96L131 360.95L503 360.95L503 360.96L131 360.96L131.65 368.16L132.58 375.29L133.77 382.33L135.22 389.28L136.93 396.14L138.89 402.89L141.09 409.53L143.54 416.06L146.22 422.48L149.13 428.77L152.26 434.93L155.61 440.96L159.18 446.86L162.96 452.6L166.94 458.2L171.11 463.64L175.48 468.93L180.04 474.04L184.78 478.99L189.69 483.76L194.78 488.35L200.03 492.76L205.45 496.97L211.02 500.98L216.74 504.8L222.61 508.4L228.61 511.79L234.75 514.97L241.02 517.92L247.41 520.64L253.93 523.13L260.55 525.37L267.29 527.38L274.12 529.13L281.05 530.63L288.08 531.87L295.19 532.84L302.39 533.54L309.66 533.96L317 534.11L324.34 533.96L331.61 533.54L338.81 532.84L345.92 531.87L352.95 530.63L359.88 529.13L366.71 527.38L373.45 525.37L380.07 523.13L386.59 520.64L392.98 517.92L399.25 514.97L405.39 511.79L411.39 508.4L417.26 504.8L422.98 500.98L428.55 496.97L433.97 492.76L439.22 488.35L444.31 483.76L449.22 478.99L453.96 474.04L458.52 468.93L462.89 463.64L467.07 458.2L471.04 452.6L474.82 446.86L478.39 440.96L481.74 434.93L484.88 428.77L487.79 422.48L490.47 416.06L492.91 409.53L495.12 402.89L497.07 396.14L498.78 389.28L500.24 382.33L501.43 375.29L502.35 368.16L503 360.96L516.79 360.96L517.34 360.95L517.88 360.91L518.42 360.86L518.95 360.78L519.47 360.69L519.99 360.57L520.5 360.44L521 360.28L521.49 360.11L521.97 359.91L522.45 359.7L522.91 359.47L523.36 359.23L523.81 358.96L524.24 358.68L524.66 358.39L525.06 358.08L525.46 357.75L525.84 357.41L526.21 357.06L526.56 356.69L526.9 356.31L527.23 355.91L527.54 355.51L527.83 355.09L528.11 354.66L528.38 354.21L528.62 353.76L528.85 353.3L529.06 352.82L529.26 352.34L529.43 351.85L529.59 351.35L529.72 350.84L529.84 350.32L529.93 349.8L530.01 349.27L530.07 348.73L530.1 348.19L530.11 347.64L530.11 347.63L530.1 347.09L530.07 346.54L530.01 346L529.93 345.47L529.84 344.95L529.72 344.43L529.59 343.92L529.43 343.42L529.26 342.93L529.06 342.45L528.85 341.98L528.62 341.51L528.38 341.06L528.11 340.62L527.83 340.19L527.54 339.77L527.23 339.36L526.9 338.97L526.56 338.58L526.21 338.22L525.84 337.86L525.46 337.52L525.06 337.2L524.66 336.88L524.24 336.59L523.81 336.31L523.36 336.05L522.91 335.8L522.45 335.57L521.97 335.36L521.49 335.17L521 334.99L520.5 334.84L519.99 334.7L519.47 334.59L518.95 334.49L518.42 334.41L517.88 334.36L517.34 334.33L516.79 334.32L503 334.32L502.35 327.11L501.42 319.98L500.23 312.94L498.78 305.99L497.07 299.14L495.11 292.39L492.91 285.74L490.46 279.21L487.78 272.79L484.87 266.5L481.74 260.34L478.39 254.31L474.82 248.42L471.04 242.67L467.06 237.07L462.89 231.63L458.52 226.35L453.96 221.23L449.22 216.28L444.31 211.51L439.22 206.92L433.97 202.52L428.55 198.31L422.98 194.29L417.26 190.48L411.39 186.87L405.39 183.48L399.25 180.31L392.98 177.36L386.59 174.64L380.07 172.15L373.45 169.9L366.71 167.9L359.88 166.14L352.95 164.65L345.92 163.41L338.81 162.44L331.61 161.74L324.34 161.31L317 161.17L309.66 161.31L302.39 161.74Z" id="cQRcxHwRx"></path><path d="M303.68 99.89L303.68 38.63L330.32 38.63L330.32 99.89L303.68 99.89Z" id="b2AucSbUl8"></path><path d="M172.27 142.05L141.64 88.99L164.71 75.67L195.34 128.73L172.27 142.05Z" id="c2gJdTOSBx"></path><path d="M87.44 236.64L34.38 206L47.7 182.93L100.76 213.57L87.44 236.64Z" id="b2obQ6wXlT"></path><path d="M0 360.95L0 334.32L61.27 334.32L61.27 360.95L0 360.95Z" id="aK0fIGVCj"></path><path d="M572.73 360.95L572.73 334.32L634 334.32L634 360.95L572.73 360.95Z" id="amWRtuMt4"></path><path d="M546.56 236.63L533.24 213.56L586.29 182.93L599.61 206L546.56 236.63Z" id="a3tcT3pjcQ"></path><path d="M451.07 139.38L428 126.07L458.64 73.01L481.71 86.33L451.07 139.38Z" id="b40zYMY58D"></path><path d="M303.68 656.65L303.68 595.38L330.32 595.38L330.32 656.65L303.68 656.65Z" id="d3zqZbkL0"></path><path d="M469.29 619.6L438.66 566.54L461.73 553.23L492.36 606.28L469.29 619.6Z" id="d9XrAs0oD"></path><path d="M586.3 512.34L533.24 481.71L546.56 458.64L599.62 489.27L586.3 512.34Z" id="cMmVQ0LPo"></path><path d="M572.73 360.96L572.73 334.32L634 334.32L634 360.96L572.73 360.96Z" id="bWIlFuhWg"></path><path d="M0 360.96L0 334.32L61.27 334.32L61.27 360.96L0 360.96Z" id="b26WmW0ENO"></path><path d="M47.71 512.35L34.39 489.28L87.44 458.64L100.76 481.71L47.71 512.35Z" id="b7lC0WDBGC"></path><path d="M175.36 622.27L152.29 608.95L182.93 555.89L206 569.21L175.36 622.27Z" id="aa0XqDlx4"></path><path d="M107.5 321.95L130.94 321.95L130.94 364.14L107.5 364.14L107.5 321.95Z" id="eeaCcQe4n"></path><path d="M502.81 327.42L526.25 327.42L526.25 375.86L502.81 375.86L502.81 327.42Z" id="b6v8wkwtS0"></path><path d="M109.82 334.32C112.54 334.32 114.75 336.52 114.75 339.24C114.75 343.59 114.75 351.68 114.75 356.02C114.75 358.75 112.54 360.95 109.82 360.95C108.83 360.95 110.81 360.95 109.82 360.95C107.1 360.95 104.89 358.75 104.89 356.02C104.89 351.68 104.89 343.59 104.89 339.24C104.89 336.52 107.1 334.32 109.82 334.32C110.81 334.32 108.83 334.32 109.82 334.32Z" id="c1s0Tt01M5"></path><path d="M524.27 335.32C527.5 335.32 530.11 337.93 530.11 341.15C530.11 345.31 530.11 351.96 530.11 356.12C530.11 359.34 527.5 361.95 524.27 361.95C523.11 361.95 525.44 361.95 524.27 361.95C521.05 361.95 518.44 359.34 518.44 356.12C518.44 351.96 518.44 345.31 518.44 341.15C518.44 337.93 521.05 335.32 524.27 335.32C525.44 335.32 523.11 335.32 524.27 335.32Z" id="b1TNLnzw2K"></path><path d="M109.08 339.05C112.02 339.05 114.41 341.43 114.41 344.37C114.41 346.43 114.41 347.29 114.41 349.35C114.41 352.29 112.02 354.67 109.08 354.67C108.02 354.67 110.15 354.67 109.08 354.67C106.14 354.67 103.76 352.29 103.76 349.35C103.76 347.29 103.76 346.43 103.76 344.37C103.76 341.43 106.14 339.05 109.08 339.05C110.15 339.05 108.02 339.05 109.08 339.05Z" id="c4BlNKtZUq"></path></defs><g><g><use xlink:href="#b3ogfQ8pH8" opacity="1" fill="#d4e1f4" fill-opacity="1"></use><g><use xlink:href="#b3ogfQ8pH8" opacity="1" fill-opacity="0" stroke="#000000" stroke-width="1" stroke-opacity="0"></use></g></g><g><use xlink:href="#a1LtvYyGST" opacity="1" fill="#d4e1f4" fill-opacity="1"></use><g><use xlink:href="#a1LtvYyGST" opacity="1" fill-opacity="0" stroke="#000000" stroke-width="1" stroke-opacity="0"></use></g></g><g><use xlink:href="#cQRcxHwRx" opacity="1" fill="#0635c9" fill-opacity="1"></use><g><use xlink:href="#cQRcxHwRx" opacity="1" fill-opacity="0" stroke="#000000" stroke-width="1" stroke-opacity="0"></use></g></g><g><use xlink:href="#b2AucSbUl8" opacity="1" fill="#0635c9" fill-opacity="1"></use><g><use xlink:href="#b2AucSbUl8" opacity="1" fill-opacity="0" stroke="#000000" stroke-width="1" stroke-opacity="0"></use></g></g><g><use xlink:href="#c2gJdTOSBx" opacity="1" fill="#0635c9" fill-opacity="1"></use><g><use xlink:href="#c2gJdTOSBx" opacity="1" fill-opacity="0" stroke="#000000" stroke-width="1" stroke-opacity="0"></use></g></g><g><use xlink:href="#b2obQ6wXlT" opacity="1" fill="#0635c9" fill-opacity="1"></use><g><use xlink:href="#b2obQ6wXlT" opacity="1" fill-opacity="0" stroke="#000000" stroke-width="1" stroke-opacity="0"></use></g></g><g><use xlink:href="#aK0fIGVCj" opacity="1" fill="#0635c9" fill-opacity="1"></use><g><use xlink:href="#aK0fIGVCj" opacity="1" fill-opacity="0" stroke="#000000" stroke-width="1" stroke-opacity="0"></use></g></g><g><use xlink:href="#amWRtuMt4" opacity="1" fill="#0635c9" fill-opacity="1"></use><g><use xlink:href="#amWRtuMt4" opacity="1" fill-opacity="0" stroke="#000000" stroke-width="1" stroke-opacity="0"></use></g></g><g><use xlink:href="#a3tcT3pjcQ" opacity="1" fill="#0635c9" fill-opacity="1"></use><g><use xlink:href="#a3tcT3pjcQ" opacity="1" fill-opacity="0" stroke="#000000" stroke-width="1" stroke-opacity="0"></use></g></g><g><use xlink:href="#b40zYMY58D" opacity="1" fill="#0635c9" fill-opacity="1"></use><g><use xlink:href="#b40zYMY58D" opacity="1" fill-opacity="0" stroke="#000000" stroke-width="1" stroke-opacity="0"></use></g></g><g><use xlink:href="#d3zqZbkL0" opacity="1" fill="#0635c9" fill-opacity="1"></use><g><use xlink:href="#d3zqZbkL0" opacity="1" fill-opacity="0" stroke="#000000" stroke-width="1" stroke-opacity="0"></use></g></g><g><use xlink:href="#d9XrAs0oD" opacity="1" fill="#0635c9" fill-opacity="1"></use><g><use xlink:href="#d9XrAs0oD" opacity="1" fill-opacity="0" stroke="#000000" stroke-width="1" stroke-opacity="0"></use></g></g><g><use xlink:href="#cMmVQ0LPo" opacity="1" fill="#0635c9" fill-opacity="1"></use><g><use xlink:href="#cMmVQ0LPo" opacity="1" fill-opacity="0" stroke="#000000" stroke-width="1" stroke-opacity="0"></use></g></g><g><use xlink:href="#bWIlFuhWg" opacity="1" fill="#0635c9" fill-opacity="1"></use><g><use xlink:href="#bWIlFuhWg" opacity="1" fill-opacity="0" stroke="#000000" stroke-width="1" stroke-opacity="0"></use></g></g><g><use xlink:href="#b26WmW0ENO" opacity="1" fill="#0635c9" fill-opacity="1"></use><g><use xlink:href="#b26WmW0ENO" opacity="1" fill-opacity="0" stroke="#000000" stroke-width="1" stroke-opacity="0"></use></g></g><g><use xlink:href="#b7lC0WDBGC" opacity="1" fill="#0635c9" fill-opacity="1"></use><g><use xlink:href="#b7lC0WDBGC" opacity="1" fill-opacity="0" stroke="#000000" stroke-width="1" stroke-opacity="0"></use></g></g><g><use xlink:href="#aa0XqDlx4" opacity="1" fill="#0635c9" fill-opacity="1"></use><g><use xlink:href="#aa0XqDlx4" opacity="1" fill-opacity="0" stroke="#000000" stroke-width="1" stroke-opacity="0"></use></g></g><g><use xlink:href="#eeaCcQe4n" opacity="1" fill="#0635c9" fill-opacity="1"></use></g><g><use xlink:href="#b6v8wkwtS0" opacity="1" fill="#0635c9" fill-opacity="1"></use></g><g><use xlink:href="#c1s0Tt01M5" opacity="1" fill="#0635c9" fill-opacity="1"></use></g><g><use xlink:href="#b1TNLnzw2K" opacity="1" fill="#0635c9" fill-opacity="1"></use></g><g><use xlink:href="#c4BlNKtZUq" opacity="1" fill="#0635c9" fill-opacity="1"></use></g></g></svg>