<?xml version="1.0"?>
<svg xmlns="http://www.w3.org/2000/svg" height="512px" viewBox="0 -29 476 476" width="512px" class=""><g transform="matrix(1 0 0 1 0 0)"><path d="m268 85.007812c-44.132812-8.960937-89.953125 2.363282-124.832031 30.847657-34.878907 28.484375-55.128907 71.121093-55.167969 116.152343h60c.003906-71.285156 50.160156-132.726562 120-147zm0 0" fill="#d4e1f4" data-original="#D4E1F4" class=""/><path d="m408.285156 374.882812c-19.335937 0-29.6875 7.761719-38 14-7.449218 5.585938-13.335937 10-26 10-12.667968 0-18.550781-4.414062-26-10-8.316406-6.238281-18.667968-14-38-14-19.335937 0-29.683594 7.761719-38 14-7.449218 5.585938-13.335937 10-26 10-12.667968 0-18.550781-4.414062-26-10-8.316406-6.238281-18.667968-14-38-14-19.335937 0-29.683594 7.761719-38 14-7.449218 5.585938-13.335937 10-26 10-12.667968 0-18.550781-4.414062-26-10-8.316406-6.238281-18.667968-14-38-14v20c12.664063 0 18.550782 4.414063 26 10 8.316406 6.238282 18.664063 14 38 14 19.332032 0 29.679688-7.761718 38-14 7.449219-5.585937 13.332032-10 26-10 12.664063 0 18.546875 4.414063 26 10 8.316406 6.238282 18.664063 14 38 14 19.332032 0 29.683594-7.761718 38-14 7.449219-5.585937 13.332032-10 26-10 12.664063 0 18.550782 4.414063 26 10 8.316406 6.238282 18.664063 14 38 14 19.332032 0 29.683594-7.761718 38-14 7.449219-5.585937 13.332032-10 26-10 12.664063 0 18.550782 4.414063 26 10 8.316406 6.238282 18.664063 14 38 14v-20c-12.667968 0-18.554687-4.414062-26-10-8.316406-6.242187-18.667968-14-38-14zm0 0" fill="#1ae5be" data-original="#1AE5BE" class="active-path" style="fill:#0635C9" data-old_color="#1ae5be"/><path d="m408.285156 304.882812c-19.335937 0-29.6875 7.761719-38 14-7.449218 5.585938-13.335937 10-26 10-12.667968 0-18.550781-4.414062-26-10-8.316406-6.238281-18.667968-14-38-14-19.335937 0-29.683594 7.761719-38 14-7.449218 5.585938-13.335937 10-26 10-12.667968 0-18.550781-4.414062-26-10-8.316406-6.238281-18.667968-14-38-14-19.335937 0-29.683594 7.761719-38 14-7.449218 5.585938-13.335937 10-26 10-12.667968 0-18.550781-4.414062-26-10-8.316406-6.238281-18.667968-14-38-14v20c12.664063 0 18.550782 4.414063 26 10 8.316406 6.238282 18.664063 14 38 14 19.332032 0 29.679688-7.761718 38-14 7.449219-5.585937 13.332032-10 26-10 12.664063 0 18.546875 4.414063 26 10 8.316406 6.238282 18.664063 14 38 14 19.332032 0 29.683594-7.761718 38-14 7.449219-5.585937 13.332032-10 26-10 12.664063 0 18.550782 4.414063 26 10 8.316406 6.238282 18.664063 14 38 14 19.332032 0 29.683594-7.761718 38-14 7.449219-5.585937 13.332032-10 26-10 12.664063 0 18.550782 4.414063 26 10 8.316406 6.238282 18.664063 14 38 14v-20c-12.667968 0-18.554687-4.414062-26-10-8.316406-6.242187-18.667968-14-38-14zm0 0" fill="#1ae5be" data-original="#1AE5BE" class="active-path" style="fill:#0635C9" data-old_color="#1ae5be"/><g fill="#0635c9"><path d="m238 72.003906c-88.226562 0-160 71.777344-160 160 0 5.523438 4.476562 10 10 10h300c5.523438 0 10-4.476562 10-10 0-88.222656-71.777344-160-160-160zm-139.648438 150c5.148438-72.542968 65.816407-130 139.648438-130s134.5 57.457032 139.644531 130zm0 0" data-original="#0635C9" class="" style="fill:#0635C9"/><path d="m228 0h20v46h-20zm0 0" data-original="#0635C9" class="" style="fill:#0635C9"/><path d="m106.339844 37.8125 17.320312-10 23 39.835938-17.320312 10zm0 0" data-original="#0635C9" class="" style="fill:#0635C9"/><path d="m25.8125 125.664062 10-17.320312 39.835938 23-10 17.320312zm0 0" data-original="#0635C9" class="" style="fill:#0635C9"/><path d="m0 222h46v20h-46zm0 0" data-original="#0635C9" class="" style="fill:#0635C9"/><path d="m430 222h46v20h-46zm0 0" data-original="#0635C9" class="" style="fill:#0635C9"/><path d="m400.347656 131.339844 39.835938-23 10 17.320312-39.835938 23zm0 0" data-original="#0635C9" class="" style="fill:#0635C9"/><path d="m321.339844 65.648438 23-39.835938 17.320312 10-23 39.835938zm0 0" data-original="#0635C9" class="" style="fill:#0635C9"/></g></g> </svg>
