<?xml version="1.0" encoding="UTF-8" standalone="no"?>
<!DOCTYPE svg PUBLIC "-//W3C//DTD SVG 1.1//EN" "http://www.w3.org/Graphics/SVG/1.1/DTD/svg11.dtd">
<svg version="1.1" xmlns="http://www.w3.org/2000/svg" xmlns:xlink="http://www.w3.org/1999/xlink" preserveAspectRatio="xMidYMid meet" viewBox="55.20437956204381 150.8409931756709 537.7479215035255 338.7800000581328" width="533.75" height="334.78"><defs><path d="M469.56 391.87C445.89 443.62 344.89 448.23 244.17 402.16C143.45 356.08 80.9 276.66 104.57 224.91C128.24 173.16 229.23 168.55 329.96 214.63C430.68 260.7 493.23 340.12 469.56 391.87Z" id="b2CDpvr3T7"></path><path d="M157.08 218.15C82.6 283.03 50.46 368.21 85.34 408.25C120.22 448.3 209.01 428.14 283.49 363.27C357.96 298.39 390.11 213.21 355.23 173.17C320.35 133.12 231.56 153.28 157.08 218.15Z" id="itsgqoMb8"></path><path d="M412.7 239.71C412.7 268.51 391.93 291.9 366.35 291.9C340.77 291.9 320 268.51 320 239.71C320 210.9 340.77 187.52 366.35 187.52C391.93 187.52 412.7 210.9 412.7 239.71Z" id="a15bGf1DKi"></path><path d="M299.63 152.07L303.26 152.31L306.89 152.65L310.52 153.07L314.13 153.58L317.74 154.19L321.33 154.88L324.91 155.66L328.47 156.53L332.01 157.5L335.54 158.55L339.04 159.69L342.51 160.93L345.96 162.25L349.38 163.67L352.76 165.17L356.08 166.75L359.33 168.41L362.53 170.14L365.66 171.94L368.73 173.82L371.73 175.77L374.67 177.78L377.54 179.86L380.34 182.01L383.08 184.22L385.74 186.5L388.33 188.84L390.85 191.23L393.29 193.69L395.66 196.2L397.95 198.76L400.17 201.38L402.3 204.05L404.36 206.77L406.34 209.54L408.23 212.36L410.05 215.23L411.78 218.13L413.42 221.08L414.98 224.08L416.45 227.11L417.83 230.18L419.12 233.29L420.32 236.43L421.43 239.61L422.45 242.81L423.37 246.05L424.19 249.32L424.93 252.62L425.56 255.94L426.09 259.28L426.53 262.65L426.86 266.05L427.1 269.46L430.09 270.77L433.02 272.17L435.87 273.66L438.65 275.22L441.36 276.87L443.99 278.58L446.55 280.38L449.02 282.24L451.42 284.17L453.74 286.17L455.98 288.24L458.13 290.37L460.2 292.55L462.19 294.8L464.09 297.1L465.9 299.46L467.62 301.86L469.26 304.32L470.8 306.82L472.25 309.37L473.61 311.96L474.87 314.59L476.03 317.25L477.1 319.96L478.07 322.69L478.94 325.46L479.7 328.25L480.37 331.08L480.93 333.92L481.39 336.79L481.74 339.68L481.99 342.59L482.12 345.51L482.15 348.44L482.07 351.39L481.87 354.34L481.56 357.3L481.13 360.26L480.59 363.23L479.94 366.19L479.17 369.14L478.29 372.04L477.31 374.89L476.23 377.69L475.05 380.45L473.77 383.16L472.39 385.81L470.92 388.41L469.36 390.96L467.71 393.45L465.97 395.88L464.15 398.25L462.24 400.56L460.26 402.8L458.2 404.98L456.05 407.1L453.84 409.15L451.55 411.13L449.2 413.03L446.77 414.87L444.28 416.63L441.73 418.31L439.12 419.92L436.44 421.45L433.71 422.9L430.93 424.26L428.09 425.55L425.2 426.74L422.26 427.86L419.28 428.88L416.25 429.81L413.18 430.65L410.08 431.4L406.93 432.06L403.75 432.62L400.53 433.08L397.29 433.44L394.01 433.7L390.71 433.86L387.38 433.91L151 433.91L148.01 433.87L145.03 433.74L142.07 433.53L139.13 433.24L136.21 432.86L133.32 432.4L130.45 431.87L127.62 431.25L124.81 430.56L122.03 429.79L119.29 428.95L116.58 428.03L113.91 427.04L111.28 425.98L108.68 424.85L106.13 423.65L103.62 422.38L101.16 421.04L98.74 419.63L96.37 418.16L94.05 416.63L91.79 415.03L89.57 413.37L87.41 411.64L85.31 409.86L83.26 408.02L81.28 406.12L79.36 404.17L77.5 402.16L75.7 400.09L73.98 397.97L72.32 395.8L70.73 393.58L69.21 391.3L67.77 388.98L66.4 386.61L65.11 384.19L63.89 381.73L62.76 379.22L61.71 376.66L60.75 374.08L59.88 371.49L59.11 368.88L58.42 366.26L57.83 363.64L57.34 361.01L56.93 358.38L56.61 355.74L56.39 353.11L56.25 350.47L56.2 347.84L56.25 345.21L56.37 342.59L56.59 339.98L56.89 337.38L57.28 334.79L57.76 332.21L58.32 329.65L58.96 327.11L59.69 324.59L60.5 322.09L61.4 319.61L62.38 317.16L63.43 314.73L64.57 312.33L65.8 309.96L67.1 307.62L68.48 305.32L69.94 303.05L71.47 300.82L73.09 298.63L74.78 296.48L76.55 294.38L78.4 292.31L80.32 290.3L82.32 288.33L84.39 286.41L86.54 284.55L88.76 282.74L91.05 280.98L90.78 280.3L90.52 279.61L90.26 278.93L90.01 278.24L89.76 277.55L89.53 276.86L89.29 276.17L89.07 275.48L88.85 274.78L88.64 274.09L88.44 273.39L88.24 272.69L88.05 271.99L87.87 271.29L87.7 270.58L87.53 269.88L87.37 269.17L87.21 268.46L87.06 267.75L86.92 267.04L86.79 266.33L86.66 265.62L86.54 264.91L86.42 264.19L86.32 263.48L86.22 262.76L86.12 262.04L86.04 261.33L85.96 260.61L85.89 259.89L85.82 259.17L85.77 258.45L85.71 257.73L85.67 257.01L85.63 256.28L85.6 255.56L85.58 254.84L85.56 254.12L85.56 253.39L85.55 252.67L85.63 249.27L85.86 245.92L86.24 242.6L86.75 239.32L87.41 236.08L88.21 232.89L89.13 229.74L90.19 226.65L91.38 223.61L92.7 220.63L94.14 217.7L95.69 214.84L97.37 212.04L99.15 209.3L101.05 206.64L103.06 204.05L105.17 201.53L107.39 199.09L109.7 196.73L112.11 194.46L114.62 192.26L117.21 190.16L119.9 188.15L122.66 186.23L125.51 184.4L128.44 182.67L131.45 181.05L134.53 179.53L137.68 178.11L140.89 176.8L144.18 175.61L147.52 174.53L150.92 173.56L154.38 172.72L157.89 171.99L161.45 171.4L165.06 170.92L168.71 170.58L172.4 170.38L176.14 170.3L177.01 170.3L177.88 170.31L178.76 170.33L179.63 170.36L180.5 170.39L181.38 170.43L182.25 170.48L183.12 170.53L183.98 170.6L184.85 170.67L185.72 170.75L186.59 170.83L187.45 170.93L188.32 171.03L189.18 171.14L190.04 171.25L190.9 171.38L191.76 171.51L192.61 171.65L193.47 171.8L194.32 171.95L195.18 172.11L196.03 172.28L196.87 172.46L197.72 172.65L198.57 172.84L199.41 173.04L200.25 173.24L201.09 173.46L201.92 173.68L202.76 173.91L203.59 174.15L204.42 174.39L205.25 174.64L206.07 174.9L206.89 175.17L207.71 175.44L208.53 175.72L209.34 176.01L210.16 176.31L213.2 174.31L216.29 172.39L219.43 170.55L222.62 168.8L225.84 167.14L229.1 165.55L232.4 164.06L235.74 162.65L239.11 161.32L242.52 160.09L245.95 158.93L249.41 157.87L252.89 156.88L256.4 155.99L259.93 155.18L263.48 154.46L267.05 153.83L270.64 153.28L274.23 152.82L277.84 152.45L281.46 152.17L285.09 151.97L288.72 151.86L292.36 151.84L295.99 151.91L299.63 152.07ZM283.57 170.92L280.36 171.16L277.17 171.47L273.99 171.87L270.82 172.36L267.67 172.92L264.53 173.56L261.42 174.28L258.32 175.08L255.24 175.96L252.19 176.92L249.17 177.96L246.18 179.07L243.21 180.27L240.28 181.54L237.38 182.89L234.52 184.32L231.69 185.83L228.91 187.41L226.17 189.07L223.47 190.81L220.82 192.63L218.21 194.52L217.97 194.69L217.73 194.86L217.48 195.02L217.23 195.17L216.97 195.32L216.72 195.45L216.45 195.58L216.19 195.71L215.92 195.82L215.65 195.93L215.37 196.03L215.09 196.13L214.81 196.21L214.53 196.29L214.25 196.36L213.96 196.43L213.67 196.48L213.38 196.53L213.09 196.58L212.8 196.61L212.51 196.64L212.22 196.66L211.92 196.67L211.63 196.67L211.33 196.67L211.04 196.66L210.74 196.64L210.45 196.61L210.16 196.58L209.86 196.54L209.57 196.49L209.28 196.43L208.99 196.36L208.7 196.29L208.42 196.21L208.13 196.12L207.85 196.03L207.57 195.92L207.29 195.81L207.01 195.69L206.29 195.37L205.57 195.06L204.84 194.75L204.11 194.45L203.37 194.17L202.63 193.88L201.89 193.61L201.14 193.35L200.4 193.09L199.65 192.84L198.89 192.6L198.14 192.37L197.38 192.14L196.61 191.92L195.85 191.71L195.08 191.51L194.31 191.32L193.54 191.14L192.77 190.96L191.99 190.79L191.21 190.63L190.43 190.48L189.65 190.33L188.87 190.2L188.08 190.07L187.29 189.95L186.5 189.84L185.71 189.74L184.92 189.64L184.13 189.56L183.33 189.48L182.54 189.41L181.74 189.35L180.94 189.3L180.14 189.25L179.34 189.22L178.54 189.19L177.74 189.17L176.94 189.16L176.13 189.16L173.25 189.21L170.41 189.37L167.59 189.64L164.81 190L162.06 190.46L159.36 191.02L156.69 191.67L154.07 192.41L151.49 193.25L148.96 194.17L146.48 195.18L144.05 196.27L141.68 197.44L139.36 198.7L137.1 200.03L134.9 201.44L132.77 202.92L130.7 204.47L128.7 206.09L126.77 207.78L124.91 209.54L123.12 211.36L121.41 213.24L119.79 215.18L118.24 217.18L116.77 219.23L115.4 221.34L114.1 223.5L112.9 225.71L111.8 227.96L110.78 230.26L109.87 232.61L109.05 234.99L108.33 237.41L107.72 239.88L107.21 242.37L106.81 244.9L106.53 247.46L106.35 250.05L106.29 252.67L106.29 253.38L106.3 254.09L106.32 254.8L106.35 255.51L106.39 256.21L106.43 256.92L106.49 257.63L106.55 258.33L106.62 259.04L106.7 259.74L106.79 260.44L106.89 261.14L107 261.84L107.11 262.54L107.24 263.24L107.37 263.93L107.51 264.63L107.66 265.32L107.82 266.01L107.98 266.7L108.16 267.39L108.34 268.08L108.54 268.76L108.74 269.44L108.95 270.12L109.17 270.8L109.39 271.48L109.63 272.15L109.87 272.82L110.12 273.49L110.38 274.16L110.65 274.82L110.93 275.48L111.21 276.14L111.5 276.8L111.8 277.45L112.11 278.1L112.43 278.75L112.76 279.39L113.09 280.04L113.25 280.35L113.4 280.67L113.53 281L113.65 281.32L113.75 281.65L113.85 281.98L113.92 282.31L113.99 282.64L114.04 282.97L114.08 283.3L114.1 283.63L114.11 283.96L114.11 284.3L114.1 284.63L114.07 284.96L114.04 285.28L113.98 285.61L113.92 285.93L113.84 286.26L113.76 286.57L113.66 286.89L113.54 287.2L113.42 287.51L113.28 287.82L113.13 288.12L112.97 288.42L112.8 288.71L112.62 288.99L112.43 289.27L112.22 289.55L112 289.82L111.77 290.08L111.54 290.34L111.29 290.59L111.02 290.83L110.75 291.06L110.47 291.29L110.18 291.51L109.87 291.72L109.56 291.92L107.57 293.19L105.63 294.51L103.75 295.88L101.93 297.3L100.17 298.76L98.47 300.27L96.82 301.82L95.24 303.42L93.72 305.05L92.26 306.73L90.87 308.44L89.53 310.19L88.26 311.97L87.06 313.78L85.92 315.63L84.84 317.5L83.83 319.41L82.89 321.34L82.02 323.29L81.21 325.27L80.47 327.27L79.8 329.29L79.2 331.33L78.67 333.39L78.21 335.46L77.82 337.55L77.5 339.65L77.26 341.76L77.09 343.88L76.99 346.01L76.97 348.15L77.02 350.29L77.15 352.43L77.36 354.58L77.64 356.73L78 358.87L78.43 361.01L78.95 363.15L79.54 365.29L80.22 367.41L80.97 369.52L81.79 371.59L82.68 373.62L83.63 375.62L84.66 377.58L85.74 379.51L86.9 381.39L88.11 383.23L89.38 385.03L90.72 386.79L92.11 388.51L93.55 390.18L95.05 391.8L96.61 393.38L98.21 394.92L99.87 396.4L101.58 397.84L103.33 399.22L105.13 400.56L106.97 401.84L108.86 403.07L110.79 404.24L112.76 405.36L114.77 406.43L116.81 407.43L118.89 408.38L121.01 409.27L123.16 410.11L125.34 410.88L127.55 411.58L129.79 412.23L132.05 412.81L134.35 413.33L136.66 413.78L139 414.16L141.36 414.48L143.75 414.73L146.15 414.91L148.56 415.02L151 415.06L387.38 415.06L388.85 415.05L390.32 415.01L391.78 414.95L393.25 414.86L394.7 414.74L396.15 414.6L397.6 414.43L399.04 414.24L400.47 414.02L401.9 413.78L403.32 413.51L404.74 413.21L406.14 412.9L407.54 412.55L408.93 412.18L410.31 411.79L411.68 411.37L413.04 410.93L414.39 410.46L415.73 409.97L417.06 409.45L418.38 408.92L419.69 408.35L420.98 407.77L422.26 407.16L423.53 406.53L424.79 405.88L426.03 405.2L427.26 404.5L428.48 403.78L429.68 403.03L430.86 402.26L432.03 401.48L433.18 400.66L434.32 399.83L435.44 398.98L436.54 398.1L437.62 397.21L438.69 396.29L439.74 395.35L441.71 393.49L443.59 391.57L445.37 389.61L447.07 387.6L448.67 385.54L450.17 383.45L451.58 381.31L452.9 379.14L454.12 376.93L455.25 374.69L456.29 372.42L457.23 370.12L458.08 367.8L458.83 365.46L459.49 363.1L460.05 360.72L460.51 358.33L460.89 355.92L461.16 353.51L461.34 351.08L461.43 348.66L461.42 346.23L461.31 343.8L461.1 341.38L460.81 338.96L460.41 336.55L459.92 334.15L459.33 331.77L458.64 329.4L457.86 327.05L456.98 324.71L456 322.41L454.93 320.12L453.76 317.87L452.49 315.65L451.12 313.46L449.66 311.31L448.1 309.19L446.43 307.12L444.68 305.09L444.67 305.08L444.04 304.39L443.4 303.71L442.76 303.04L442.1 302.38L441.44 301.73L440.76 301.08L440.08 300.44L439.39 299.81L438.69 299.19L437.98 298.58L437.27 297.98L436.54 297.38L435.81 296.8L435.07 296.22L434.32 295.66L433.56 295.1L432.79 294.55L432.02 294.01L431.24 293.48L430.45 292.96L429.65 292.45L428.85 291.95L428.04 291.46L427.22 290.97L426.4 290.5L425.56 290.04L424.73 289.58L423.88 289.14L423.03 288.71L422.17 288.29L421.3 287.87L420.43 287.47L419.56 287.08L418.67 286.7L417.78 286.32L416.89 285.96L415.99 285.61L415.08 285.27L414.17 284.94L413.25 284.62L412.95 284.52L412.65 284.4L412.36 284.28L412.08 284.15L411.8 284.01L411.52 283.87L411.25 283.71L410.99 283.55L410.74 283.39L410.49 283.22L410.24 283.04L410.01 282.85L409.78 282.66L409.55 282.46L409.34 282.26L409.13 282.05L408.92 281.84L408.73 281.62L408.54 281.4L408.36 281.17L408.19 280.93L408.02 280.69L407.86 280.45L407.71 280.2L407.57 279.95L407.44 279.7L407.32 279.44L407.2 279.17L407.09 278.91L406.99 278.64L406.9 278.36L406.82 278.09L406.75 277.81L406.69 277.53L406.63 277.24L406.59 276.96L406.55 276.67L406.53 276.38L406.51 276.08L406.51 275.79L406.51 275.38L406.46 272.35L406.32 269.33L406.08 266.33L405.75 263.35L405.33 260.39L404.82 257.45L404.21 254.53L403.52 251.64L402.74 248.77L401.87 245.93L400.92 243.12L399.88 240.34L398.75 237.59L397.55 234.87L396.26 232.18L394.89 229.54L393.45 226.93L391.92 224.36L390.32 221.83L388.63 219.34L386.88 216.89L385.05 214.49L383.14 212.14L381.17 209.84L379.12 207.58L377 205.38L374.81 203.22L372.56 201.13L370.23 199.08L367.84 197.1L365.39 195.17L362.87 193.3L360.29 191.5L357.65 189.75L354.94 188.08L352.18 186.46L349.35 184.92L346.47 183.44L343.53 182.04L340.54 180.7L337.51 179.45L334.45 178.28L331.36 177.19L328.26 176.19L325.13 175.27L321.99 174.44L318.83 173.69L315.65 173.03L312.47 172.44L309.27 171.95L306.07 171.53L302.86 171.2L299.64 170.94L296.42 170.78L293.2 170.69L289.99 170.68L286.77 170.76L283.57 170.92Z" id="aa3ZNeQQb"></path><path d="M164.01 342.3L314.89 342.3L314.89 427.83L164.01 427.83L164.01 342.3Z" id="cpwZapAac"></path><path d="M407.43 198.21L411.07 198.46L414.7 198.81L418.32 199.24L421.94 199.77L425.54 200.38L429.13 201.09L432.71 201.89L436.27 202.79L439.82 203.77L443.34 204.85L446.84 206.02L450.31 207.28L453.76 208.64L457.19 210.09L460.56 211.62L463.88 213.24L467.14 214.94L470.33 216.71L473.46 218.55L476.53 220.47L479.54 222.47L482.47 224.53L485.34 226.66L488.15 228.86L490.88 231.12L493.54 233.45L496.13 235.84L498.65 238.29L501.09 240.8L503.46 243.37L505.76 246L507.97 248.68L510.11 251.41L512.17 254.19L514.14 257.03L516.04 259.91L517.85 262.84L519.58 265.82L521.22 268.84L522.78 271.9L524.25 275L525.63 278.15L526.92 281.32L528.12 284.54L529.23 287.79L530.25 291.07L531.17 294.39L532 297.73L532.73 301.1L533.36 304.5L533.9 307.93L534.33 311.38L534.67 314.85L534.9 318.34L537.9 319.68L540.82 321.12L543.67 322.64L546.46 324.24L549.16 325.92L551.79 327.68L554.35 329.51L556.83 331.42L559.23 333.4L561.54 335.44L563.78 337.56L565.94 339.73L568.01 341.97L569.99 344.27L571.89 346.63L573.7 349.04L575.43 351.5L577.06 354.01L578.6 356.57L580.05 359.18L581.41 361.83L582.67 364.52L583.83 367.25L584.9 370.01L585.87 372.81L586.74 375.64L587.51 378.5L588.17 381.39L588.74 384.3L589.19 387.24L589.55 390.2L589.79 393.17L589.93 396.16L589.95 399.16L589.87 402.17L589.67 405.2L589.36 408.23L588.94 411.26L588.4 414.29L587.74 417.33L586.97 420.34L586.09 423.31L585.11 426.22L584.03 429.1L582.85 431.92L581.57 434.69L580.19 437.4L578.72 440.06L577.16 442.67L575.51 445.22L573.77 447.7L571.95 450.13L570.05 452.49L568.06 454.79L566 457.02L563.86 459.19L561.64 461.28L559.36 463.3L557 465.26L554.58 467.13L552.09 468.94L549.53 470.66L546.92 472.3L544.24 473.87L541.51 475.35L538.73 476.75L535.89 478.06L533 479.29L530.07 480.43L527.08 481.47L524.06 482.43L520.99 483.29L517.88 484.06L514.73 484.72L511.55 485.3L508.34 485.77L505.09 486.14L501.81 486.4L498.51 486.57L495.19 486.62L258.81 486.62L255.81 486.58L252.83 486.45L249.87 486.23L246.93 485.93L244.01 485.55L241.12 485.08L238.26 484.53L235.42 483.9L232.61 483.19L229.84 482.41L227.09 481.55L224.39 480.61L221.71 479.6L219.08 478.51L216.49 477.35L213.93 476.12L211.43 474.82L208.96 473.45L206.54 472.01L204.17 470.5L201.86 468.93L199.59 467.3L197.37 465.6L195.21 463.84L193.11 462.01L191.07 460.13L189.08 458.19L187.16 456.19L185.3 454.13L183.51 452.01L181.78 449.84L180.12 447.62L178.53 445.35L177.01 443.02L175.57 440.64L174.2 438.22L172.91 435.74L171.7 433.22L170.56 430.65L169.51 428.04L168.55 425.4L167.68 422.74L166.91 420.08L166.23 417.4L165.64 414.72L165.14 412.02L164.73 409.33L164.42 406.63L164.19 403.93L164.05 401.24L164.01 398.55L164.05 395.86L164.18 393.18L164.39 390.5L164.7 387.84L165.09 385.19L165.56 382.56L166.12 379.94L166.77 377.34L167.49 374.75L168.31 372.19L169.2 369.66L170.18 367.15L171.24 364.66L172.38 362.21L173.6 359.78L174.9 357.39L176.28 355.04L177.74 352.72L179.28 350.44L180.89 348.19L182.59 345.99L184.36 343.84L186.2 341.73L188.13 339.66L190.12 337.65L192.2 335.69L194.34 333.78L196.56 331.93L198.85 330.13L198.58 329.43L198.32 328.73L198.06 328.03L197.81 327.33L197.57 326.62L197.33 325.92L197.1 325.21L196.87 324.5L196.66 323.79L196.45 323.08L196.24 322.36L196.05 321.64L195.86 320.93L195.67 320.21L195.5 319.49L195.33 318.77L195.17 318.04L195.01 317.32L194.86 316.59L194.72 315.87L194.59 315.14L194.46 314.41L194.34 313.68L194.23 312.95L194.12 312.22L194.02 311.49L193.93 310.75L193.84 310.02L193.76 309.28L193.69 308.55L193.63 307.81L193.57 307.07L193.52 306.34L193.47 305.6L193.44 304.86L193.41 304.12L193.38 303.38L193.37 302.64L193.36 301.9L193.36 301.16L193.44 297.69L193.66 294.25L194.04 290.85L194.56 287.49L195.21 284.18L196.01 280.91L196.94 277.7L198 274.53L199.19 271.42L200.5 268.37L201.94 265.38L203.5 262.45L205.17 259.58L206.96 256.78L208.86 254.06L210.86 251.41L212.98 248.83L215.19 246.34L217.5 243.92L219.92 241.59L222.42 239.35L225.02 237.19L227.7 235.13L230.47 233.17L233.32 231.3L236.25 229.53L239.25 227.87L242.33 226.31L245.48 224.86L248.7 223.52L251.98 222.3L255.32 221.2L258.72 220.21L262.18 219.34L265.69 218.6L269.25 217.99L272.86 217.51L276.51 217.16L280.21 216.95L283.94 216.87L284.81 216.88L285.69 216.89L286.56 216.9L287.43 216.93L288.31 216.96L289.18 217L290.05 217.05L290.92 217.11L291.79 217.17L292.66 217.25L293.52 217.33L294.39 217.42L295.25 217.51L296.12 217.62L296.98 217.73L297.84 217.85L298.7 217.97L299.56 218.11L300.42 218.25L301.27 218.4L302.13 218.56L302.98 218.73L303.83 218.9L304.68 219.08L305.52 219.27L306.37 219.47L307.21 219.67L308.05 219.88L308.89 220.1L309.73 220.33L310.56 220.57L311.39 220.81L312.22 221.06L313.05 221.32L313.87 221.58L314.7 221.85L315.52 222.13L316.33 222.42L317.15 222.72L317.96 223.02L321 220.97L324.1 219.01L327.24 217.13L330.42 215.34L333.64 213.63L336.91 212.02L340.21 210.49L343.54 209.04L346.92 207.69L350.32 206.42L353.75 205.24L357.21 204.15L360.7 203.14L364.21 202.23L367.74 201.4L371.29 200.66L374.86 200.02L378.44 199.46L382.04 198.99L385.65 198.61L389.26 198.31L392.89 198.11L396.52 198L400.16 197.98L403.8 198.05L407.43 198.21ZM391.37 217.5L388.17 217.75L384.97 218.07L381.79 218.48L378.63 218.97L375.47 219.55L372.34 220.2L369.22 220.94L366.12 221.76L363.05 222.66L360 223.64L356.97 224.7L353.98 225.85L351.01 227.07L348.08 228.37L345.18 229.76L342.32 231.22L339.5 232.76L336.71 234.38L333.97 236.08L331.27 237.86L328.62 239.72L326.01 241.65L325.78 241.83L325.53 242L325.28 242.17L325.03 242.32L324.78 242.47L324.52 242.61L324.26 242.74L323.99 242.87L323.72 242.99L323.45 243.1L323.17 243.2L322.9 243.3L322.62 243.39L322.33 243.47L322.05 243.54L321.76 243.61L321.48 243.67L321.19 243.72L320.9 243.76L320.6 243.79L320.31 243.82L320.02 243.84L319.72 243.85L319.43 243.86L319.14 243.85L318.84 243.84L318.55 243.82L318.25 243.8L317.96 243.76L317.67 243.72L317.37 243.67L317.08 243.61L316.79 243.54L316.5 243.47L316.22 243.38L315.93 243.29L315.65 243.2L315.37 243.09L315.09 242.98L314.82 242.85L314.09 242.52L313.37 242.2L312.64 241.89L311.91 241.59L311.17 241.29L310.43 241.01L309.69 240.73L308.95 240.45L308.2 240.19L307.45 239.94L306.69 239.69L305.94 239.45L305.18 239.22L304.42 239L303.65 238.78L302.89 238.58L302.12 238.38L301.34 238.19L300.57 238.01L299.79 237.84L299.02 237.67L298.24 237.52L297.45 237.37L296.67 237.23L295.88 237.1L295.1 236.98L294.31 236.87L293.52 236.76L292.72 236.66L291.93 236.58L291.14 236.5L290.34 236.43L289.54 236.36L288.74 236.31L287.94 236.26L287.14 236.23L286.34 236.2L285.54 236.18L284.74 236.17L283.94 236.17L281.06 236.23L278.21 236.39L275.39 236.66L272.61 237.03L269.87 237.5L267.16 238.07L264.49 238.74L261.87 239.5L259.29 240.35L256.76 241.3L254.28 242.33L251.85 243.45L249.48 244.65L247.16 245.93L244.9 247.29L242.7 248.73L240.57 250.25L238.5 251.84L236.5 253.5L234.57 255.23L232.71 257.02L230.93 258.89L229.22 260.81L227.59 262.8L226.04 264.84L224.58 266.94L223.2 269.1L221.91 271.31L220.71 273.57L219.6 275.88L218.59 278.23L217.67 280.63L216.85 283.07L216.13 285.55L215.52 288.07L215.02 290.62L214.62 293.21L214.33 295.83L214.15 298.48L214.09 301.16L214.09 301.88L214.1 302.61L214.12 303.34L214.15 304.06L214.19 304.79L214.23 305.51L214.29 306.23L214.35 306.95L214.42 307.67L214.5 308.39L214.59 309.11L214.69 309.83L214.8 310.55L214.91 311.26L215.04 311.97L215.17 312.69L215.31 313.4L215.46 314.11L215.62 314.81L215.79 315.52L215.96 316.22L216.15 316.92L216.34 317.62L216.54 318.32L216.75 319.02L216.97 319.71L217.19 320.4L217.43 321.09L217.67 321.78L217.92 322.46L218.18 323.15L218.45 323.83L218.73 324.5L219.01 325.18L219.31 325.85L219.61 326.52L219.92 327.18L220.24 327.85L220.56 328.51L220.9 329.16L221.06 329.49L221.2 329.82L221.33 330.15L221.45 330.48L221.56 330.81L221.65 331.15L221.73 331.49L221.79 331.82L221.84 332.16L221.88 332.5L221.9 332.84L221.92 333.18L221.92 333.52L221.9 333.86L221.88 334.2L221.84 334.53L221.79 334.87L221.72 335.2L221.65 335.53L221.56 335.85L221.46 336.18L221.35 336.5L221.22 336.81L221.08 337.13L220.94 337.43L220.78 337.74L220.61 338.04L220.42 338.33L220.23 338.62L220.02 338.9L219.81 339.17L219.58 339.44L219.34 339.71L219.09 339.96L218.83 340.21L218.56 340.45L218.27 340.68L217.98 340.9L217.68 341.12L217.36 341.32L215.37 342.62L213.43 343.97L211.55 345.37L209.73 346.82L207.97 348.32L206.27 349.87L204.63 351.46L203.05 353.09L201.52 354.76L200.07 356.48L198.67 358.23L197.34 360.02L196.07 361.84L194.86 363.7L193.72 365.58L192.65 367.5L191.64 369.45L190.69 371.43L189.82 373.43L189.01 375.45L188.27 377.5L187.6 379.57L187 381.65L186.47 383.76L186.01 385.88L185.62 388.02L185.31 390.17L185.06 392.33L184.89 394.5L184.8 396.68L184.77 398.86L184.83 401.05L184.95 403.25L185.16 405.44L185.44 407.64L185.8 409.83L186.24 412.03L186.75 414.22L187.34 416.4L188.02 418.57L188.77 420.73L189.59 422.85L190.48 424.93L191.43 426.98L192.46 428.98L193.55 430.95L194.7 432.88L195.91 434.76L197.18 436.61L198.52 438.41L199.91 440.16L201.35 441.87L202.86 443.53L204.41 445.15L206.02 446.72L207.67 448.24L209.38 449.71L211.13 451.13L212.93 452.49L214.78 453.8L216.66 455.06L218.59 456.26L220.56 457.41L222.57 458.5L224.61 459.53L226.69 460.5L228.81 461.41L230.96 462.26L233.14 463.05L235.35 463.77L237.59 464.43L239.86 465.03L242.15 465.56L244.47 466.02L246.81 466.42L249.17 466.74L251.55 466.99L253.95 467.18L256.37 467.29L258.8 467.33L495.18 467.33L496.65 467.32L498.12 467.28L499.59 467.22L501.05 467.13L502.5 467.01L503.96 466.86L505.4 466.69L506.84 466.49L508.28 466.27L509.7 466.02L511.12 465.74L512.54 465.44L513.94 465.12L515.34 464.76L516.73 464.39L518.11 463.98L519.48 463.55L520.84 463.1L522.19 462.62L523.53 462.12L524.86 461.6L526.18 461.04L527.49 460.47L528.78 459.87L530.07 459.25L531.34 458.6L532.59 457.93L533.84 457.24L535.06 456.52L536.28 455.78L537.48 455.02L538.66 454.24L539.83 453.43L540.98 452.6L542.12 451.75L543.24 450.87L544.34 449.98L545.43 449.06L546.49 448.12L547.54 447.16L549.51 445.26L551.39 443.3L553.18 441.29L554.87 439.23L556.47 437.13L557.97 434.98L559.39 432.8L560.7 430.57L561.93 428.31L563.06 426.02L564.09 423.7L565.03 421.35L565.88 418.97L566.63 416.58L567.29 414.16L567.85 411.72L568.32 409.28L568.69 406.81L568.96 404.34L569.14 401.87L569.23 399.38L569.22 396.9L569.11 394.42L568.91 391.93L568.61 389.46L568.21 386.99L567.72 384.54L567.13 382.1L566.45 379.67L565.66 377.27L564.78 374.88L563.81 372.52L562.73 370.19L561.56 367.88L560.29 365.61L558.93 363.37L557.46 361.16L555.9 359L554.24 356.88L552.48 354.8L552.47 354.79L551.84 354.09L551.21 353.39L550.56 352.71L549.9 352.03L549.24 351.36L548.57 350.7L547.88 350.04L547.19 349.4L546.49 348.77L545.79 348.14L545.07 347.52L544.34 346.92L543.61 346.32L542.87 345.73L542.12 345.15L541.36 344.58L540.6 344.02L539.82 343.46L539.04 342.92L538.25 342.39L537.46 341.87L536.65 341.35L535.84 340.85L535.02 340.35L534.2 339.87L533.37 339.4L532.53 338.93L531.68 338.48L530.83 338.04L529.97 337.6L529.11 337.18L528.24 336.77L527.36 336.37L526.48 335.98L525.59 335.6L524.69 335.23L523.79 334.87L522.88 334.52L521.97 334.18L521.05 333.86L520.75 333.75L520.45 333.63L520.16 333.5L519.88 333.37L519.6 333.23L519.32 333.08L519.06 332.93L518.79 332.76L518.54 332.59L518.29 332.42L518.05 332.23L517.81 332.05L517.58 331.85L517.36 331.65L517.14 331.44L516.93 331.23L516.73 331.01L516.53 330.78L516.34 330.55L516.16 330.32L515.99 330.08L515.82 329.84L515.67 329.59L515.52 329.33L515.38 329.08L515.24 328.82L515.12 328.55L515 328.28L514.89 328.01L514.79 327.73L514.7 327.45L514.62 327.17L514.55 326.88L514.49 326.6L514.43 326.31L514.39 326.01L514.36 325.72L514.33 325.42L514.32 325.12L514.31 324.82L514.31 324.4L514.26 321.29L514.12 318.21L513.88 315.14L513.55 312.09L513.13 309.06L512.62 306.05L512.01 303.07L511.32 300.1L510.54 297.17L509.67 294.26L508.72 291.39L507.68 288.54L506.56 285.72L505.35 282.94L504.06 280.2L502.7 277.49L501.25 274.82L499.72 272.19L498.12 269.6L496.44 267.05L494.68 264.55L492.85 262.1L490.95 259.69L488.97 257.33L486.92 255.02L484.8 252.76L482.62 250.56L480.36 248.42L478.04 246.33L475.65 244.29L473.19 242.32L470.67 240.41L468.09 238.56L465.45 236.78L462.74 235.06L459.98 233.41L457.16 231.83L454.28 230.32L451.34 228.88L448.34 227.52L445.31 226.23L442.25 225.03L439.16 223.92L436.06 222.9L432.93 221.96L429.79 221.11L426.63 220.34L423.46 219.66L420.27 219.07L417.07 218.56L413.87 218.13L410.66 217.79L407.44 217.53L404.23 217.36L401.01 217.27L397.79 217.26L394.58 217.34L391.37 217.5Z" id="b1VCOnVIQw"></path><path d="" id="d3skfOETXW"></path></defs><g><g><use xlink:href="#b2CDpvr3T7" opacity="1" fill="#b29dfb" fill-opacity="1"></use></g><g><use xlink:href="#itsgqoMb8" opacity="1" fill="#b29dfb" fill-opacity="1"></use></g><g><use xlink:href="#a15bGf1DKi" opacity="1" fill="#b29dfb" fill-opacity="1"></use></g><g><use xlink:href="#aa3ZNeQQb" opacity="1" fill="#b29dfb" fill-opacity="1"></use><g><use xlink:href="#aa3ZNeQQb" opacity="1" fill-opacity="0" stroke="#000000" stroke-width="1" stroke-opacity="0"></use></g></g><g><use xlink:href="#cpwZapAac" opacity="1" fill="#b29dfb" fill-opacity="1"></use><g><use xlink:href="#cpwZapAac" opacity="1" fill-opacity="0" stroke="#5ce487" stroke-width="0" stroke-opacity="1"></use></g></g><g><use xlink:href="#b1VCOnVIQw" opacity="1" fill="#0635c9" fill-opacity="1"></use><g><use xlink:href="#b1VCOnVIQw" opacity="1" fill-opacity="0" stroke="#000000" stroke-width="1" stroke-opacity="0"></use></g></g><g><g><use xlink:href="#d3skfOETXW" opacity="1" fill-opacity="0" stroke="#000000" stroke-width="1" stroke-opacity="1"></use></g></g></g></svg>