<svg height="345pt" viewBox="0 -28 345.856 345" width="345pt" xmlns="http://www.w3.org/2000/svg"><g fill="#1ae5be"><path d="m259.828125 150.441406h-.785156c-29.519531.183594-61.738281 10.953125-90.730469 30.320313-4.164062 2.785156-8.320312 5.6875-12.335938 8.5-18.847656 13.171875-36.652343 25.617187-58.226562 28.480469-33.15625 4.40625-68-5.621094-91.3125-13.546876l-6.4375 18.9375c20.820312 7.078126 50.242188 15.691407 80.875 15.691407 6.523438.011719 13.042969-.40625 19.511719-1.25 26.398437-3.507813 47.0625-17.949219 67.046875-31.914063 3.933594-2.75 8-5.589844 11.992187-8.257812 43.429688-29.019532 109.023438-44.707032 150.945313 6.589844l15.484375-12.660157c-21.867188-26.765625-51.597657-40.890625-86.027344-40.890625zm0 0"/><path d="m259.828125 50.433594h-.785156c-29.519531.183594-61.738281 10.953125-90.730469 30.320312-4.164062 2.785156-8.320312 5.6875-12.335938 8.496094-18.847656 13.171875-36.652343 25.613281-58.226562 28.480469-33.164062 4.40625-68-5.625-91.3125-13.550781l-6.4375 18.9375c20.820312 7.078124 50.242188 15.691406 80.871094 15.691406 6.527344.011718 13.046875-.40625 19.515625-1.25 26.398437-3.511719 47.066406-17.949219 67.046875-31.914063 3.933594-2.75 8-5.59375 11.992187-8.257812 43.429688-29.023438 109.023438-44.707031 150.945313 6.585937l15.484375-12.652344c-21.867188-26.761718-51.597657-40.886718-86.027344-40.886718zm0 0"/><path d="m259.042969 100.441406c-29.519531.183594-61.738281 10.953125-90.730469 30.320313-4.164062 2.785156-8.320312 5.6875-12.335938 8.5-18.847656 13.171875-36.652343 25.613281-58.226562 28.480469-33.160156 4.40625-67.992188-5.625-91.3125-13.550782l-6.4375 18.9375c20.820312 7.078125 50.242188 15.6875 80.871094 15.6875 6.527344.015625 13.046875-.402344 19.515625-1.25 26.398437-3.507812 47.0625-17.949218 67.046875-31.910156 3.933594-2.75 8-5.59375 11.992187-8.257812 43.429688-29.019532 109.023438-44.710938 150.945313 6.585937l15.484375-12.652344c-22.035157-26.972656-52.039063-41.117187-86.8125-40.890625zm0 0"/><path d="m259.828125 200.445312h-.785156c-29.519531.183594-61.738281 10.953126-90.730469 30.324219-4.164062 2.78125-8.320312 5.683594-12.335938 8.492188-18.847656 13.171875-36.652343 25.617187-58.226562 28.480469-33.164062 4.410156-68-5.621094-91.3125-13.550782l-6.4375 18.941406c20.820312 7.078126 50.242188 15.691407 80.871094 15.691407 6.527344.011719 13.046875-.40625 19.515625-1.25 26.398437-3.507813 47.066406-17.949219 67.046875-31.914063 3.933594-2.75 8-5.589844 11.992187-8.257812 43.429688-29.019532 109.023438-44.707032 150.945313 6.585937l15.484375-12.65625c-21.867188-26.761719-51.597657-40.886719-86.027344-40.886719zm0 0"/><path d="m100.386719 87.554688c26.398437-3.507813 47.0625-17.949219 67.046875-31.914063 3.933594-2.75 8-5.589844 11.992187-8.257813 43.429688-29.019531 109.023438-44.707031 150.945313 6.589844l15.484375-12.65625c-21.867188-26.761718-51.597657-40.886718-86.027344-40.886718h-.785156c-29.519531.183593-61.738281 10.953124-90.730469 30.320312-4.164062 2.78125-8.320312 5.6875-12.335938 8.492188-18.847656 13.175781-36.652343 25.617187-58.226562 28.484374-33.160156 4.40625-67.992188-5.625-91.3125-13.550781l-6.4375 18.9375c20.820312 7.078125 50.242188 15.691407 80.871094 15.691407 6.527344.011718 13.046875-.40625 19.515625-1.25zm0 0"/></g></svg>