<?xml version="1.0" encoding="UTF-8" standalone="no"?>
<!DOCTYPE svg PUBLIC "-//W3C//DTD SVG 1.1//EN" "http://www.w3.org/Graphics/SVG/1.1/DTD/svg11.dtd">
<svg version="1.1" xmlns="http://www.w3.org/2000/svg" xmlns:xlink="http://www.w3.org/1999/xlink" preserveAspectRatio="xMidYMid meet" viewBox="0.25873851211930066 19.408237396313403 594.3531313716709 440.6166969419458" width="590.35" height="436.62"><defs><path d="M508.45 20.5L508.6 20.51L508.76 20.53L508.91 20.55L509.07 20.57L509.22 20.59L509.37 20.62L509.52 20.66L509.67 20.69L509.82 20.73L509.96 20.78L510.11 20.82L510.25 20.87L510.39 20.93L510.53 20.98L510.67 21.04L510.81 21.11L510.95 21.17L511.08 21.24L511.21 21.31L511.35 21.39L511.48 21.47L511.61 21.55L511.73 21.63L511.86 21.72L511.99 21.81L512.11 21.9L512.23 22L512.35 22.1L512.47 22.2L512.58 22.31L512.7 22.41L512.81 22.52L512.92 22.64L513.03 22.75L513.14 22.87L513.25 22.99L513.35 23.11L513.46 23.24L513.56 23.37L513.66 23.5L513.8 23.73L513.94 23.96L514.06 24.2L514.17 24.44L514.27 24.68L514.37 24.92L514.45 25.17L514.52 25.42L514.59 25.67L514.64 25.92L514.68 26.17L514.72 26.42L514.74 26.68L514.75 26.93L514.76 27.18L514.75 27.44L514.74 27.69L514.71 27.94L514.68 28.19L514.64 28.43L514.58 28.68L514.52 28.92L514.45 29.16L514.37 29.4L514.28 29.63L514.18 29.86L514.07 30.09L513.95 30.31L513.83 30.53L513.69 30.75L513.55 30.96L513.39 31.16L513.23 31.36L513.06 31.55L512.88 31.74L512.69 31.92L512.49 32.09L512.29 32.26L512.07 32.42L511.85 32.57L511.32 32.91L510.8 33.25L510.28 33.6L509.76 33.95L509.25 34.31L508.74 34.67L508.23 35.04L507.73 35.41L507.23 35.79L506.73 36.17L506.24 36.56L505.75 36.95L505.26 37.35L504.78 37.75L504.3 38.15L503.83 38.56L503.36 38.98L502.89 39.4L502.43 39.83L501.96 40.25L501.51 40.69L501.05 41.13L500.6 41.57L500.16 42.02L499.71 42.47L499.27 42.93L498.84 43.39L498.41 43.86L497.98 44.33L497.55 44.8L497.13 45.28L496.71 45.77L496.3 46.26L495.89 46.75L495.48 47.25L495.08 47.75L494.68 48.25L494.28 48.76L493.89 49.28L493.5 49.8L493.15 50.29L492.8 50.78L492.45 51.28L492.1 51.79L491.76 52.29L491.41 52.8L491.08 53.32L490.74 53.84L490.41 54.36L490.08 54.88L489.76 55.41L489.44 55.95L489.12 56.48L488.81 57.02L488.5 57.56L488.19 58.11L487.89 58.66L487.59 59.21L487.3 59.77L487 60.33L486.72 60.89L486.43 61.46L486.16 62.03L485.88 62.6L485.61 63.18L485.34 63.76L485.08 64.34L484.82 64.92L484.57 65.51L484.32 66.1L484.08 66.7L483.84 67.3L483.61 67.9L483.38 68.5L483.15 69.1L482.93 69.71L482.71 70.32L482.5 70.94L482.3 71.56L482.1 72.18L481.65 73.66L481.22 75.14L480.83 76.62L480.47 78.11L480.15 79.6L479.85 81.09L479.59 82.58L479.35 84.07L479.15 85.57L478.97 87.06L478.83 88.55L478.72 90.03L478.63 91.52L478.58 93.01L478.56 94.49L478.56 95.97L478.59 97.44L478.66 98.91L478.75 100.38L478.87 101.84L479.02 103.3L479.19 104.75L479.4 106.2L479.63 107.64L479.89 109.07L480.17 110.5L480.49 111.92L480.83 113.33L481.19 114.73L481.59 116.12L482.01 117.5L482.45 118.88L482.93 120.24L483.42 121.6L483.95 122.94L484.5 124.27L485.07 125.59L485.67 126.9L486.29 128.19L486.94 129.47L487.61 130.74L488.31 132L489.03 133.24L489.78 134.48L490.55 135.69L491.34 136.89L492.16 138.08L493 139.26L493.87 140.41L494.75 141.56L495.66 142.68L496.6 143.79L497.55 144.88L498.53 145.96L499.53 147.01L500.55 148.05L501.59 149.07L502.65 150.08L503.73 151.06L504.84 152.02L505.96 152.96L507.11 153.88L508.27 154.79L509.46 155.67L510.66 156.52L511.89 157.36L513.13 158.17L514.39 158.96L515.67 159.73L516.97 160.47L518.29 161.19L519.62 161.89L520.98 162.56L522.35 163.2L523.74 163.82L525.14 164.41L526.56 164.98L528 165.52L529.46 166.03L530.93 166.51L531.58 166.72L532.24 166.92L532.9 167.11L533.56 167.3L534.21 167.48L534.87 167.66L535.53 167.83L536.18 167.99L536.84 168.15L537.49 168.3L538.15 168.44L538.8 168.58L539.46 168.72L540.11 168.84L540.77 168.96L541.42 169.08L542.07 169.18L542.72 169.29L543.38 169.38L544.03 169.47L544.68 169.55L545.33 169.63L545.98 169.7L546.63 169.77L547.28 169.83L547.92 169.88L548.57 169.92L549.22 169.96L549.86 170L550.51 170.02L551.15 170.04L551.8 170.06L552.44 170.07L553.08 170.07L553.72 170.06L554.36 170.05L555 170.04L555.64 170.01L556.27 169.98L556.91 169.95L557.58 169.92L558.25 169.88L558.92 169.84L559.59 169.79L560.26 169.73L560.93 169.67L561.59 169.6L562.25 169.53L562.92 169.45L563.58 169.36L564.24 169.27L564.9 169.17L565.55 169.07L566.21 168.96L566.86 168.84L567.51 168.72L568.16 168.59L568.81 168.46L569.46 168.32L570.11 168.18L570.75 168.03L571.39 167.87L572.03 167.71L572.67 167.55L573.31 167.37L573.94 167.2L574.58 167.02L575.21 166.83L575.84 166.63L576.46 166.44L577.09 166.23L577.71 166.02L578.33 165.81L578.95 165.59L579.56 165.37L580.18 165.14L580.79 164.91L581.4 164.67L582 164.42L582.61 164.18L582.76 164.13L582.92 164.08L583.08 164.04L583.23 164L583.39 163.96L583.55 163.93L583.7 163.9L583.86 163.87L584.02 163.84L584.17 163.82L584.33 163.8L584.48 163.79L584.64 163.78L584.79 163.77L584.95 163.77L585.1 163.76L585.25 163.76L585.41 163.77L585.56 163.78L585.71 163.79L585.86 163.8L586.01 163.82L586.16 163.84L586.31 163.87L586.46 163.9L586.61 163.93L586.76 163.96L586.9 164L587.05 164.04L587.19 164.09L587.34 164.14L587.48 164.19L587.62 164.25L587.77 164.31L587.91 164.37L588.05 164.44L588.18 164.51L588.32 164.58L588.46 164.66L588.59 164.74L588.83 164.88L589.05 165.03L589.27 165.18L589.48 165.35L589.67 165.52L589.86 165.69L590.04 165.88L590.21 166.07L590.37 166.27L590.53 166.47L590.67 166.68L590.8 166.89L590.92 167.11L591.04 167.33L591.14 167.56L591.23 167.79L591.32 168.02L591.39 168.26L591.45 168.5L591.51 168.75L591.55 169L591.58 169.25L591.6 169.5L591.61 169.75L591.61 170.01L591.6 170.26L591.58 170.52L591.54 170.78L591.5 171.04L591.45 171.3L591.38 171.56L591.3 171.82L591.21 172.08L591.11 172.33L591 172.59L590.87 172.85L590.74 173.1L590.59 173.35L590.43 173.6L590.25 173.85L589.35 175.32L588.42 176.78L587.47 178.22L586.49 179.64L585.5 181.04L584.48 182.42L583.44 183.78L582.38 185.12L581.3 186.44L580.2 187.74L579.08 189.02L577.94 190.28L576.78 191.52L575.6 192.73L574.4 193.93L573.18 195.11L571.94 196.26L570.69 197.39L569.42 198.5L568.13 199.59L566.83 200.65L565.5 201.69L564.17 202.71L562.81 203.71L561.44 204.68L560.06 205.63L558.66 206.55L557.24 207.45L555.81 208.33L554.37 209.18L552.91 210.01L551.44 210.82L549.95 211.59L548.45 212.35L546.94 213.08L545.42 213.78L543.89 214.46L542.34 215.11L540.79 215.73L539.22 216.33L537.66 216.89L536.1 217.43L534.53 217.94L532.95 218.43L531.36 218.89L529.76 219.33L528.16 219.74L526.55 220.13L524.93 220.49L523.3 220.83L521.67 221.14L520.03 221.42L518.39 221.68L516.74 221.91L515.09 222.11L513.43 222.29L511.77 222.44L510.1 222.57L508.43 222.66L506.75 222.73L505.08 222.77L503.4 222.79L501.71 222.77L500.03 222.73L498.34 222.66L496.65 222.56L494.96 222.43L493.27 222.27L491.57 222.09L489.88 221.87L488.19 221.63L486.49 221.35L484.8 221.05L483.11 220.71L481.42 220.35L479.73 219.95L478.04 219.53L476.35 219.07L474.67 218.58L472.99 218.06L471.01 217.41L469.05 216.72L467.11 216L465.2 215.24L463.31 214.44L461.45 213.61L459.61 212.75L457.79 211.85L455.99 210.92L454.22 209.95L452.48 208.96L450.76 207.93L449.06 206.87L447.39 205.78L447.12 205.59L447.42 205.02L448.13 203.59L448.78 202.12L449.38 200.6L449.92 199.04L450.4 197.44L450.83 195.8L451.21 194.13L451.52 192.42L451.6 191.93L452.47 192.59L453.88 193.6L455.31 194.58L456.76 195.53L458.23 196.46L459.73 197.36L461.24 198.23L462.78 199.07L464.34 199.89L465.92 200.67L467.53 201.43L469.15 202.15L470.8 202.85L472.46 203.51L474.15 204.15L475.85 204.75L477.58 205.31L479.06 205.77L480.54 206.2L482.02 206.6L483.5 206.98L484.99 207.32L486.47 207.64L487.96 207.94L489.44 208.21L490.92 208.45L492.41 208.66L493.89 208.85L495.37 209.02L496.85 209.15L498.33 209.27L499.8 209.35L501.27 209.42L502.74 209.45L504.21 209.47L505.67 209.45L507.13 209.42L508.59 209.35L510.04 209.27L511.49 209.16L512.93 209.03L514.37 208.87L515.81 208.69L517.23 208.49L518.65 208.26L520.07 208.01L521.48 207.74L522.88 207.44L524.28 207.12L525.67 206.78L527.05 206.42L528.42 206.03L529.79 205.63L531.14 205.2L532.49 204.75L533.83 204.28L535.16 203.78L536.1 203.43L537.02 203.07L537.95 202.7L538.86 202.31L539.78 201.92L540.68 201.52L541.59 201.11L542.48 200.68L543.38 200.25L544.27 199.81L545.15 199.35L546.02 198.89L546.9 198.42L547.76 197.94L548.62 197.45L549.48 196.95L550.33 196.44L551.17 195.92L552.01 195.4L552.85 194.86L553.67 194.32L554.49 193.76L555.31 193.2L556.12 192.63L556.92 192.05L557.72 191.46L558.51 190.87L559.3 190.26L560.08 189.65L560.85 189.03L561.62 188.4L562.38 187.76L563.14 187.12L563.88 186.47L564.63 185.81L565.36 185.14L566.09 184.46L566.81 183.78L567.53 183.09L568.24 182.39L567.98 182.43L567.73 182.47L567.47 182.51L567.21 182.54L566.96 182.58L566.7 182.61L566.44 182.65L566.18 182.68L565.93 182.71L565.67 182.74L565.41 182.77L565.15 182.8L564.89 182.82L564.63 182.85L564.36 182.87L564.1 182.9L563.84 182.92L563.58 182.95L563.32 182.97L563.05 182.99L562.79 183.01L562.52 183.03L562.26 183.05L562 183.07L561.73 183.09L561.47 183.11L561.2 183.13L560.94 183.15L560.67 183.17L560.41 183.19L560.14 183.2L559.87 183.22L559.61 183.24L559.34 183.25L559.08 183.27L558.81 183.29L558.54 183.3L558.28 183.32L558.01 183.33L557.74 183.35L556.99 183.39L556.23 183.42L555.47 183.44L554.71 183.45L553.95 183.46L553.19 183.46L552.43 183.46L551.67 183.44L550.91 183.42L550.14 183.4L549.38 183.36L548.62 183.32L547.85 183.27L547.09 183.21L546.32 183.15L545.56 183.08L544.79 183L544.03 182.92L543.26 182.82L542.5 182.72L541.73 182.62L540.96 182.5L540.19 182.38L539.43 182.25L538.66 182.12L537.89 181.98L537.12 181.83L536.36 181.67L535.59 181.51L534.82 181.34L534.05 181.16L533.29 180.98L532.52 180.79L531.75 180.59L530.98 180.38L530.21 180.17L529.45 179.95L528.68 179.72L527.91 179.49L527.15 179.25L525.42 178.68L523.71 178.08L522.03 177.45L520.36 176.78L518.71 176.09L517.08 175.36L515.47 174.6L513.89 173.82L512.32 173L510.77 172.15L509.25 171.28L507.75 170.38L506.27 169.45L504.81 168.49L503.37 167.51L501.96 166.5L500.57 165.47L499.2 164.41L497.86 163.32L496.54 162.22L495.24 161.08L493.97 159.93L492.72 158.75L491.5 157.56L490.3 156.33L489.13 155.09L487.99 153.83L486.87 152.55L485.77 151.25L484.71 149.93L483.67 148.59L482.65 147.23L481.67 145.85L480.71 144.46L479.78 143.05L478.88 141.63L478 140.19L477.16 138.73L476.34 137.26L475.55 135.77L474.8 134.27L474.07 132.76L473.37 131.23L472.69 129.68L472.05 128.12L471.44 126.55L470.85 124.96L470.3 123.36L469.78 121.75L469.28 120.13L468.82 118.5L468.39 116.85L467.99 115.2L467.62 113.53L467.29 111.86L466.98 110.18L466.71 108.49L466.47 106.79L466.26 105.09L466.08 103.38L465.94 101.66L465.83 99.94L465.76 98.21L465.71 96.47L465.71 94.74L465.73 93L465.8 91.26L465.89 89.51L466.02 87.76L466.19 86.01L466.39 84.26L466.63 82.51L466.9 80.76L467.21 79.01L467.56 77.26L467.94 75.51L468.36 73.77L468.82 72.03L469.32 70.29L469.85 68.55L470.08 67.82L470.32 67.09L470.57 66.37L470.82 65.66L471.07 64.94L471.33 64.23L471.6 63.52L471.86 62.82L472.14 62.12L472.42 61.42L472.7 60.73L472.99 60.04L473.29 59.36L473.59 58.68L473.9 58L474.21 57.32L474.52 56.65L474.84 55.99L475.17 55.32L475.5 54.66L475.84 54.01L476.18 53.36L476.53 52.71L476.88 52.06L477.24 51.42L477.61 50.78L477.98 50.15L478.35 49.52L478.73 48.9L479.12 48.27L479.51 47.66L479.91 47.04L480.31 46.43L480.72 45.82L481.14 45.22L481.56 44.62L481.99 44.03L482.42 43.43L482.85 42.85L483.3 42.26L483.44 42.07L483.58 41.87L483.73 41.68L483.87 41.49L484.02 41.3L484.17 41.11L484.31 40.92L484.46 40.73L484.61 40.54L484.75 40.36L484.9 40.17L485.05 39.99L485.2 39.81L485.35 39.62L485.5 39.44L485.65 39.26L485.8 39.08L485.95 38.9L486.1 38.72L486.26 38.55L486.41 38.37L486.56 38.19L486.71 38.01L486.87 37.84L487.02 37.66L487.17 37.49L487.33 37.31L487.48 37.14L487.64 36.97L487.79 36.79L487.94 36.62L488.1 36.45L488.25 36.27L488.41 36.1L488.56 35.93L488.72 35.76L488.87 35.58L489.03 35.41L489.18 35.24L489.34 35.07L488.38 35.23L487.43 35.41L486.48 35.59L485.54 35.79L484.6 36L483.66 36.21L482.72 36.44L481.78 36.68L480.85 36.93L479.93 37.19L479 37.46L478.08 37.74L477.16 38.03L476.25 38.33L475.34 38.64L474.43 38.96L473.53 39.29L472.63 39.63L471.73 39.99L470.84 40.35L469.95 40.72L469.07 41.1L468.19 41.49L467.31 41.89L466.44 42.29L465.57 42.71L464.71 43.14L463.85 43.58L462.99 44.02L462.14 44.48L461.3 44.95L460.46 45.42L459.62 45.9L458.79 46.4L457.96 46.9L457.14 47.41L456.33 47.93L455.52 48.46L454.71 48.99L453.91 49.54L452.76 50.35L451.62 51.17L450.49 52.02L449.38 52.88L448.29 53.76L447.2 54.65L446.14 55.57L445.08 56.5L444.05 57.45L443.02 58.42L442.02 59.4L441.02 60.4L440.05 61.42L439.09 62.45L438.14 63.51L437.22 64.58L436.31 65.66L435.41 66.76L434.54 67.88L433.68 69.01L432.84 70.16L432.01 71.33L431.21 72.51L430.42 73.71L429.65 74.92L428.9 76.15L428.16 77.4L427.45 78.66L426.76 79.93L426.08 81.22L425.43 82.53L424.79 83.85L424.17 85.18L423.58 86.53L423 87.9L422.45 89.27L421.92 90.67L421.4 92.08L420.91 93.5L420.44 94.93L419.91 96.67L419.42 98.41L418.96 100.15L418.54 101.89L418.16 103.64L417.81 105.38L417.51 107.13L417.23 108.87L417 110.62L416.8 112.36L416.63 114.1L416.51 115.84L416.41 117.58L416.35 119.31L416.33 121.05L416.34 122.77L416.38 124.5L416.39 124.6L415.52 124.22L413.99 123.65L412.46 123.14L410.93 122.7L409.39 122.33L407.86 122.04L406.33 121.82L404.81 121.67L403.29 121.6L402.44 121.61L402.44 120.98L402.47 118.99L402.55 116.99L402.66 115L402.81 113L403.01 111L403.24 109L403.52 106.99L403.83 104.99L404.19 102.99L404.59 100.98L405.03 98.98L405.51 96.98L406.04 94.98L406.61 92.99L407.22 91L407.76 89.34L408.33 87.71L408.92 86.08L409.54 84.48L410.18 82.89L410.85 81.32L411.54 79.77L412.25 78.23L412.99 76.71L413.75 75.21L414.53 73.73L415.34 72.26L416.17 70.81L417.02 69.38L417.89 67.96L418.79 66.57L419.7 65.19L420.64 63.83L421.59 62.48L422.57 61.16L423.56 59.85L424.58 58.57L425.61 57.3L426.67 56.05L427.74 54.82L428.83 53.6L429.94 52.41L431.06 51.23L432.21 50.08L433.37 48.94L434.54 47.83L435.74 46.73L436.95 45.65L438.17 44.59L439.41 43.56L440.67 42.54L441.94 41.54L443.23 40.56L444.52 39.6L445.84 38.66L447.21 37.74L448.59 36.84L449.99 35.96L451.4 35.1L452.82 34.27L454.26 33.46L455.71 32.67L457.17 31.9L458.64 31.16L460.12 30.43L461.62 29.74L463.13 29.06L464.64 28.41L466.17 27.79L467.71 27.19L469.25 26.61L470.81 26.06L472.37 25.53L473.94 25.02L475.53 24.54L477.12 24.09L478.71 23.66L480.32 23.26L481.93 22.88L483.55 22.53L485.18 22.21L486.81 21.91L488.44 21.64L490.09 21.39L491.74 21.17L493.39 20.98L495.05 20.82L496.71 20.68L498.38 20.57L500.05 20.49L501.72 20.43L503.4 20.41L505.08 20.41L506.76 20.44L506.76 20.44L508.45 20.5Z" id="c1Tj3aBnGv"></path><path d="M164.62 101.8L167.69 102.18L170.75 102.63L173.8 103.2L176.85 103.85L179.88 104.59L182.9 105.44L185.9 106.38L188.88 107.42L191.86 108.55L194.8 109.79L194.72 109.82L194.64 109.85L194.56 109.88L194.49 109.91L194.41 109.95L194.33 109.98L194.25 110.02L194.18 110.05L194.1 110.09L194.03 110.12L193.95 110.16L193.88 110.19L193.8 110.22L193.72 110.26L193.64 110.29L193.57 110.33L193.49 110.36L193.41 110.4L193.34 110.44L193.26 110.47L193.18 110.51L193.1 110.54L193.03 110.58L192.96 110.61L192.88 110.65L192.81 110.68L192.73 110.72L192.65 110.75L192.58 110.79L192.5 110.83L192.42 110.86L192.35 110.9L192.27 110.92L192.19 110.96L192.11 111L192.04 111.03L191.96 111.07L191.9 111.1L191.82 111.14L191.74 111.18L187.97 113.07L184.33 115.1L180.79 117.25L177.36 119.52L174.06 121.92L170.87 124.43L167.8 127.05L164.85 129.79L162.02 132.62L159.32 135.56L156.74 138.58L154.29 141.69L151.98 144.89L149.79 148.17L147.73 151.53L145.79 154.96L144.01 158.44L142.36 162L140.83 165.63L139.45 169.29L138.22 173.02L137.12 176.78L136.17 180.59L135.37 184.43L134.72 188.31L134.2 192.21L133.85 196.14L133.65 200.09L133.59 204.05L133.69 208.02L133.95 211.99L134.37 215.98L134.94 219.95L135.68 223.92L136.58 227.89L137.64 231.83L138.88 235.75L140.28 239.65L141.84 243.51L143.57 247.36L141.38 248.87L139.23 250.45L137.12 252.07L135.06 253.74L133.05 255.45L131.09 257.21L129.18 259.02L127.31 260.86L125.48 262.75L123.72 264.68L122 266.65L120.32 268.66L118.71 270.7L117.14 272.79L115.62 274.9L114.16 277.06L112.75 279.24L111.39 281.46L110.1 283.71L108.85 285.99L107.66 288.29L106.52 290.63L105.44 293L104.42 295.39L103.46 297.81L102.55 300.25L101.7 302.72L100.91 305.2L100.18 307.71L99.51 310.24L98.91 312.79L98.37 315.35L97.88 317.93L97.45 320.53L97.1 323.14L96.8 325.77L96.57 328.41L96.4 331.06L96.3 333.72L96.27 336.4L96.36 340.83L96.63 345.21L97.07 349.54L97.68 353.83L98.45 358.05L99.4 362.22L100.5 366.32L101.75 370.35L103.16 374.32L104.72 378.22L106.42 382.03L108.26 385.77L110.25 389.42L112.37 392.99L114.62 396.46L117 399.85L119.51 403.13L122.13 406.32L124.88 409.39L127.74 412.36L130.71 415.22L133.8 417.97L136.98 420.59L140.26 423.1L143.64 425.48L147.11 427.74L150.68 429.86L154.33 431.84L158.07 433.68L161.89 435.39L165.79 436.94L169.75 438.35L173.78 439.61L177.89 440.71L182.06 441.65L186.28 442.42L190.56 443.04L194.9 443.47L199.28 443.74L203.71 443.83L121.9 443.83L118.36 443.78L114.85 443.6L111.37 443.32L107.92 442.93L104.49 442.42L101.09 441.81L97.73 441.08L94.4 440.26L91.11 439.34L87.86 438.31L84.65 437.18L81.49 435.95L78.37 434.62L75.3 433.21L72.28 431.69L69.32 430.09L66.4 428.39L63.54 426.6L60.75 424.73L58 422.76L55.33 420.72L52.72 418.59L50.17 416.38L47.7 414.09L45.29 411.73L42.96 409.28L40.7 406.76L38.52 404.17L36.42 401.5L34.41 398.76L32.47 395.95L30.63 393.08L28.86 390.14L27.19 387.14L25.61 384.06L24.13 380.93L22.74 377.74L21.44 374.5L20.25 371.19L19.16 367.83L18.19 364.44L17.32 361.04L16.58 357.62L15.94 354.2L15.42 350.77L15.01 347.35L14.71 343.93L14.53 340.5L14.46 337.08L14.49 333.67L14.62 330.27L14.87 326.89L15.23 323.52L15.68 320.17L16.25 316.84L16.91 313.53L17.69 310.24L18.56 306.99L19.53 303.76L20.61 300.57L21.78 297.41L23.05 294.29L24.41 291.21L25.88 288.18L27.45 285.18L29.1 282.24L30.84 279.34L32.69 276.49L34.63 273.71L36.65 270.98L38.77 268.31L40.98 265.7L43.28 263.15L45.66 260.67L48.13 258.26L50.69 255.93L53.33 253.67L56.06 251.48L58.87 249.38L61.77 247.36L60.43 244.45L59.2 241.53L58.06 238.58L57.02 235.61L56.08 232.62L55.23 229.61L54.47 226.6L53.81 223.56L53.25 220.52L52.78 217.46L52.39 214.4L52.11 211.34L51.92 208.28L51.82 205.21L51.81 202.15L51.89 199.08L52.07 196.03L52.33 192.99L52.69 189.95L53.14 186.93L53.67 183.93L54.3 180.93L55.01 177.96L55.82 175.01L56.71 172.08L57.69 169.17L58.76 166.3L59.92 163.46L61.16 160.64L62.49 157.86L63.92 155.11L65.41 152.41L67.01 149.74L68.68 147.12L70.45 144.54L72.29 142.01L74.22 139.52L76.23 137.08L78.33 134.7L80.51 132.38L82.76 130.12L85.07 127.94L87.44 125.85L89.85 123.83L92.33 121.9L94.85 120.06L97.41 118.3L100.03 116.61L102.69 115.03L105.38 113.51L108.11 112.09L110.88 110.75L113.69 109.5L116.53 108.34L119.39 107.26L122.29 106.27L125.22 105.37L128.16 104.54L131.13 103.82L134.11 103.19L137.12 102.63L140.15 102.18L143.18 101.81L146.22 101.53L149.28 101.34L152.34 101.25L155.4 101.25L158.48 101.34L161.55 101.52L164.62 101.8Z" id="b1J9sYAy5U"></path><path d="M311.05 62.52L315.67 62.86L320.29 63.33L324.91 63.92L329.5 64.64L334.09 65.48L338.67 66.45L343.22 67.55L347.76 68.77L352.26 70.11L356.74 71.59L361.2 73.2L365.62 74.92L370.01 76.77L374.37 78.75L378.66 80.86L382.88 83.07L387.03 85.39L391.09 87.81L395.07 90.34L398.99 92.96L402.8 95.69L406.55 98.51L410.19 101.42L413.76 104.44L417.24 107.53L420.63 110.72L423.93 113.99L427.13 117.34L430.24 120.77L433.26 124.28L436.17 127.88L439 131.54L441.71 135.28L444.34 139.09L446.84 142.97L449.26 146.91L451.57 150.92L453.77 154.99L455.86 159.13L457.84 163.31L459.71 167.56L461.47 171.86L463.11 176.21L464.64 180.6L466.05 185.05L467.34 189.53L468.52 194.07L469.57 198.65L470.5 203.26L471.31 207.91L471.99 212.59L472.54 217.32L472.97 222.06L473.27 226.84L477.07 228.67L480.8 230.63L484.43 232.71L487.97 234.9L491.42 237.2L494.77 239.61L498.02 242.11L501.17 244.73L504.22 247.43L507.17 250.23L510.02 253.12L512.76 256.1L515.4 259.17L517.92 262.31L520.34 265.53L522.65 268.83L524.84 272.19L526.92 275.63L528.88 279.13L530.72 282.7L532.45 286.32L534.05 290L535.54 293.73L536.9 297.52L538.13 301.35L539.23 305.22L540.21 309.13L541.06 313.08L541.78 317.07L542.35 321.08L542.81 325.13L543.12 329.19L543.29 333.29L543.33 337.39L543.22 341.51L542.97 345.65L542.57 349.79L542.04 353.94L541.34 358.1L540.51 362.24L539.53 366.36L538.41 370.42L537.16 374.41L535.79 378.34L534.28 382.2L532.65 385.99L530.9 389.7L529.04 393.34L527.05 396.9L524.95 400.39L522.74 403.79L520.42 407.11L517.99 410.34L515.46 413.48L512.84 416.54L510.11 419.49L507.3 422.37L504.39 425.13L501.39 427.81L498.3 430.37L495.13 432.84L491.88 435.2L488.56 437.45L485.16 439.59L481.68 441.61L478.13 443.52L474.53 445.32L470.85 447L467.11 448.55L463.32 449.98L459.47 451.29L455.56 452.47L451.6 453.52L447.6 454.43L443.55 455.21L439.46 455.86L435.33 456.36L431.16 456.73L426.96 456.96L422.73 457.02L121.91 457.02L118.09 456.97L114.3 456.79L110.53 456.49L106.79 456.08L103.08 455.56L99.4 454.91L95.75 454.17L92.14 453.31L88.57 452.34L85.04 451.27L81.54 450.09L78.1 448.8L74.7 447.41L71.35 445.93L68.05 444.34L64.8 442.66L61.61 440.89L58.47 439.01L55.4 437.04L52.38 434.98L49.43 432.83L46.54 430.6L43.72 428.27L40.98 425.86L38.3 423.37L35.7 420.79L33.17 418.14L30.72 415.39L28.36 412.58L26.08 409.69L23.88 406.72L21.77 403.68L19.75 400.57L17.81 397.39L15.97 394.13L14.24 390.81L12.59 387.43L11.05 383.98L9.6 380.47L8.26 376.89L7.04 373.28L5.94 369.65L4.95 366L4.08 362.34L3.34 358.67L2.71 354.98L2.18 351.3L1.78 347.61L1.5 343.92L1.32 340.23L1.26 336.55L1.32 332.87L1.48 329.2L1.75 325.55L2.14 321.9L2.64 318.29L3.24 314.68L3.95 311.09L4.78 307.54L5.7 304.01L6.73 300.5L7.87 297.03L9.12 293.6L10.46 290.2L11.91 286.85L13.47 283.53L15.12 280.26L16.88 277.03L18.74 273.86L20.7 270.74L22.75 267.68L24.91 264.66L27.16 261.71L29.51 258.83L31.95 256.01L34.5 253.25L37.13 250.57L39.87 247.96L42.69 245.42L45.61 242.96L45.26 242.01L44.92 241.05L44.6 240.09L44.28 239.13L43.97 238.17L43.66 237.2L43.09 235.26L42.81 234.29L42.54 233.32L42.29 232.34L41.79 230.37L41.56 229.39L41.34 228.4L41.13 227.42L40.92 226.43L40.72 225.44L40.53 224.45L40.35 223.46L40.18 222.46L40.02 221.46L39.87 220.47L39.72 219.47L39.58 218.46L39.45 217.46L39.33 216.45L39.23 215.45L39.13 214.45L39.04 213.44L38.88 211.42L38.82 210.42L38.76 209.41L38.71 208.4L38.68 207.39L38.65 206.37L38.61 204.35L38.61 203.34L38.71 198.58L39.01 193.88L39.48 189.24L40.14 184.64L40.98 180.11L41.99 175.64L43.17 171.24L44.52 166.91L46.03 162.65L47.71 158.48L49.53 154.38L51.51 150.38L53.64 146.45L55.92 142.63L58.34 138.9L60.89 135.28L63.58 131.75L66.4 128.34L69.35 125.03L72.42 121.85L75.6 118.78L78.91 115.84L82.31 113.02L85.84 110.33L89.47 107.77L93.19 105.36L97.02 103.08L100.94 100.95L104.94 98.97L109.04 97.13L113.22 95.47L117.47 93.95L121.8 92.61L126.2 91.42L130.66 90.41L135.2 89.57L139.79 88.91L144.44 88.43L149.14 88.15L153.89 88.04L155 88.05L156.12 88.06L157.23 88.08L159.45 88.16L160.56 88.22L161.67 88.29L162.77 88.36L163.88 88.45L164.99 88.55L166.09 88.66L167.18 88.78L168.28 88.91L170.48 89.21L171.58 89.38L172.67 89.54L173.76 89.73L175.94 90.13L177.03 90.35L178.11 90.57L179.2 90.81L180.28 91.06L181.35 91.32L182.43 91.58L184.57 92.16L185.64 92.46L187.76 93.09L188.82 93.42L189.88 93.76L191.98 94.48L193.03 94.85L195.12 95.63L196.15 96.03L197.19 96.45L201.06 93.65L204.99 90.96L208.99 88.38L213.04 85.94L217.14 83.61L221.29 81.39L225.49 79.3L229.74 77.33L234.03 75.47L238.36 73.74L242.73 72.13L247.13 70.63L251.57 69.26L256.04 68L260.53 66.87L265.04 65.86L269.59 64.98L274.15 64.21L278.73 63.58L283.32 63.05L287.93 62.65L292.54 62.38L297.17 62.23L301.79 62.2L306.42 62.3L311.05 62.52ZM290.61 88.9L286.53 89.24L282.47 89.68L278.42 90.24L274.39 90.91L270.37 91.7L266.38 92.6L262.42 93.61L258.48 94.73L254.56 95.95L250.68 97.3L246.83 98.75L243.02 100.31L239.24 101.99L235.52 103.77L231.82 105.66L228.19 107.67L224.59 109.78L221.04 111.99L217.56 114.31L214.13 116.75L210.75 119.29L207.43 121.93L207.13 122.18L206.82 122.42L206.51 122.64L206.18 122.85L205.86 123.05L205.53 123.24L205.19 123.43L204.52 123.77L204.17 123.91L203.81 124.05L203.47 124.19L203.11 124.31L202.75 124.42L202.39 124.52L202.02 124.61L201.65 124.69L201.29 124.76L200.92 124.82L200.55 124.87L200.18 124.9L199.43 124.94L199.06 124.95L198.68 124.94L197.93 124.9L197.55 124.87L197.19 124.82L196.81 124.76L196.44 124.69L196.07 124.61L195.7 124.52L195.33 124.42L194.6 124.18L193.89 123.9L193.53 123.75L193.18 123.58L191.34 122.69L190.41 122.26L189.48 121.84L188.55 121.45L187.61 121.05L186.66 120.66L184.76 119.93L183.81 119.58L182.85 119.25L181.89 118.92L180.92 118.6L178.98 118.01L178 117.73L176.04 117.2L175.05 116.95L174.07 116.72L173.08 116.49L172.08 116.29L171.09 116.08L170.09 115.89L169.09 115.71L168.09 115.54L167.09 115.38L166.08 115.24L164.05 114.99L163.04 114.88L161.02 114.7L158.98 114.56L157.97 114.51L156.95 114.47L154.91 114.43L153.89 114.43L150.22 114.51L146.6 114.74L143.01 115.11L139.47 115.61L135.98 116.26L132.54 117.04L129.14 117.95L125.8 118.99L122.52 120.16L119.3 121.45L116.14 122.86L113.06 124.39L110.04 126.03L107.08 127.79L104.21 129.65L101.42 131.62L98.69 133.69L96.07 135.86L93.52 138.14L91.06 140.5L88.7 142.96L86.43 145.51L84.25 148.14L82.18 150.86L80.2 153.66L78.34 156.53L76.59 159.48L74.94 162.51L73.42 165.6L72.01 168.75L70.72 171.97L69.55 175.25L68.51 178.59L67.6 181.98L66.82 185.42L66.17 188.92L65.67 192.46L65.3 196.04L65.08 199.67L65 203.34L65.02 205.32L65.04 206.31L65.08 207.31L65.12 208.3L65.18 209.28L65.25 210.27L65.33 211.26L65.42 212.24L65.52 213.23L65.64 214.21L65.9 216.18L66.05 217.16L66.2 218.13L66.37 219.1L66.55 220.07L66.74 221.04L66.95 222.01L67.16 222.97L67.61 224.89L67.86 225.86L68.12 226.81L68.38 227.76L68.66 228.71L68.95 229.66L69.25 230.6L69.55 231.54L70.21 233.41L70.54 234.34L70.9 235.27L71.63 237.11L72.02 238.02L72.42 238.93L73.23 240.74L73.66 241.64L73.86 242.08L74.05 242.53L74.22 242.99L74.37 243.44L74.5 243.9L74.62 244.35L74.72 244.82L74.79 245.28L74.86 245.74L74.91 246.21L74.94 246.67L74.96 247.14L74.94 248.07L74.9 248.52L74.85 248.99L74.79 249.45L74.72 249.89L74.62 250.35L74.38 251.24L74.23 251.68L74.07 252.1L73.9 252.54L73.71 252.95L73.51 253.37L73.29 253.78L73.06 254.18L72.81 254.57L72.55 254.95L72.27 255.33L71.98 255.7L71.67 256.06L71.36 256.41L71.03 256.75L70.68 257.08L70.33 257.39L69.95 257.7L69.56 258L69.17 258.27L66.63 260.05L64.16 261.9L61.78 263.81L59.46 265.8L57.21 267.85L55.05 269.97L52.96 272.14L50.95 274.37L49 276.66L47.15 279L45.38 281.4L43.67 283.85L42.06 286.34L40.52 288.88L39.08 291.47L37.71 294.09L36.42 296.75L35.22 299.45L34.11 302.19L33.08 304.96L32.14 307.75L31.29 310.59L30.53 313.44L29.85 316.32L29.27 319.23L28.77 322.15L28.37 325.08L28.06 328.04L27.84 331.01L27.71 333.99L27.69 336.98L27.75 339.97L27.92 342.98L28.18 345.98L28.53 348.99L28.99 351.99L29.55 354.99L30.21 357.99L30.96 360.97L31.82 363.95L32.78 366.89L33.82 369.8L34.95 372.64L36.16 375.43L37.47 378.18L38.85 380.87L40.32 383.51L41.86 386.08L43.49 388.61L45.18 391.07L46.95 393.48L48.79 395.81L50.7 398.09L52.68 400.3L54.72 402.44L56.83 404.52L59 406.53L61.23 408.48L63.52 410.34L65.87 412.13L68.28 413.86L70.72 415.5L73.23 417.07L75.79 418.55L78.39 419.97L81.04 421.3L83.73 422.55L86.47 423.7L89.24 424.78L92.05 425.78L94.91 426.68L97.79 427.49L100.7 428.21L103.66 428.85L106.63 429.39L109.64 429.83L112.67 430.18L115.72 430.43L118.8 430.58L121.9 430.64L422.72 430.64L424.59 430.62L426.46 430.57L428.33 430.48L430.19 430.36L432.04 430.19L433.88 430L435.73 429.77L437.56 429.5L439.38 429.19L441.2 428.85L443.01 428.47L444.8 428.05L446.6 427.61L448.37 427.13L450.14 426.61L451.9 426.06L453.64 425.48L455.37 424.85L457.1 424.2L458.8 423.52L460.5 422.79L462.17 422.04L463.84 421.26L465.48 420.44L467.11 419.58L468.73 418.7L470.32 417.78L471.91 416.84L473.48 415.86L475.02 414.85L476.55 413.81L478.05 412.73L479.54 411.63L481.01 410.49L482.45 409.33L483.88 408.13L485.28 406.9L486.66 405.65L488.02 404.36L489.35 403.05L491.86 400.44L494.25 397.77L496.52 395.02L498.68 392.2L500.71 389.32L502.62 386.39L504.43 383.4L506.1 380.36L507.66 377.27L509.09 374.14L510.41 370.96L511.61 367.75L512.69 364.5L513.64 361.22L514.48 357.91L515.2 354.58L515.79 351.23L516.27 347.86L516.61 344.48L516.84 341.09L516.95 337.7L516.94 334.3L516.8 330.9L516.54 327.51L516.16 324.12L515.66 320.75L515.03 317.39L514.29 314.06L513.41 310.74L512.41 307.45L511.29 304.18L510.06 300.95L508.69 297.76L507.19 294.61L505.58 291.49L503.84 288.42L501.97 285.41L499.99 282.45L497.87 279.55L495.63 276.7L495.62 276.69L494.83 275.73L494.01 274.78L493.19 273.84L492.36 272.92L491.52 272L490.66 271.09L489.79 270.2L488.91 269.32L488.02 268.46L487.12 267.6L486.21 266.76L485.29 265.92L483.4 264.3L482.45 263.51L481.49 262.72L480.51 261.96L479.53 261.21L478.54 260.46L477.53 259.73L476.52 259.02L475.5 258.31L474.47 257.63L473.43 256.95L472.38 256.29L471.32 255.64L470.25 255L468.09 253.78L467 253.19L465.9 252.61L464.79 252.04L463.67 251.5L462.55 250.96L461.41 250.45L460.27 249.94L459.12 249.45L457.97 248.97L456.81 248.5L455.64 248.06L455.25 247.91L454.88 247.75L454.51 247.58L454.15 247.4L453.79 247.21L453.44 247L453.1 246.79L452.77 246.56L452.44 246.34L452.12 246.1L451.51 245.58L451.22 245.31L450.94 245.04L450.66 244.76L450.39 244.46L450.13 244.17L449.88 243.86L449.65 243.54L449.42 243.22L449.2 242.9L448.98 242.56L448.79 242.22L448.6 241.88L448.42 241.52L448.25 241.16L448.09 240.81L447.94 240.43L447.8 240.06L447.68 239.69L447.46 238.91L447.37 238.53L447.29 238.13L447.22 237.74L447.16 237.33L447.12 236.92L447.09 236.52L447.07 236.11L447.06 235.69L447.06 235.12L447 230.88L446.82 226.66L446.52 222.46L446.1 218.29L445.57 214.14L444.91 210.02L444.14 205.94L443.26 201.89L442.27 197.88L441.16 193.9L439.95 189.96L438.62 186.07L437.19 182.22L435.66 178.42L434.02 174.66L432.28 170.96L430.44 167.3L428.49 163.7L426.45 160.17L424.31 156.68L422.08 153.26L419.76 149.9L417.33 146.6L414.81 143.38L412.21 140.22L409.51 137.13L406.73 134.12L403.85 131.19L400.9 128.32L397.86 125.55L394.74 122.85L391.53 120.24L388.25 117.71L384.88 115.26L381.44 112.92L377.92 110.66L374.33 108.5L370.66 106.44L366.92 104.47L363.11 102.6L359.25 100.84L355.35 99.2L351.43 97.69L347.48 96.28L343.5 95L339.5 93.83L335.48 92.78L331.44 91.85L327.38 91.04L323.32 90.34L319.24 89.76L315.15 89.29L311.07 88.94L306.96 88.7L302.87 88.58L298.78 88.57L294.69 88.68L290.61 88.9Z" id="c2U9aENlRP"></path></defs><g><g><use xlink:href="#c1Tj3aBnGv" opacity="1" fill="#8897ad" fill-opacity="1"></use><g><use xlink:href="#c1Tj3aBnGv" opacity="1" fill-opacity="0" stroke="#000000" stroke-width="1" stroke-opacity="0"></use></g></g><g><use xlink:href="#b1J9sYAy5U" opacity="1" fill="#d4e1f4" fill-opacity="1"></use><g><use xlink:href="#b1J9sYAy5U" opacity="1" fill-opacity="0" stroke="#000000" stroke-width="1" stroke-opacity="0"></use></g></g><g><use xlink:href="#c2U9aENlRP" opacity="1" fill="#0635c9" fill-opacity="1"></use><g><use xlink:href="#c2U9aENlRP" opacity="1" fill-opacity="0" stroke="#000000" stroke-width="1" stroke-opacity="0"></use></g></g></g></svg>