<svg height="469pt" viewBox="0 -50 469.27741 469" width="469pt" xmlns="http://www.w3.org/2000/svg"><path d="m71.996094 278.242188c.015625-27.046876 13.445312-52.328126 35.847656-67.480469-18.414062-38.574219-2.074219-84.777344 36.5-103.195313.765625-.363281 1.539062-.71875 2.316406-1.058594-29.613281-12.933593-64.144531-6.109374-86.609375 17.121094-22.460937 23.230469-28.125 57.972656-14.207031 87.132813-29.65625 20.03125-42.757812 57.082031-32.28125 91.304687 10.472656 34.222656 42.0625 57.59375 77.851562 57.59375h62c-44.964843-.003906-81.414062-36.453125-81.417968-81.417968zm0 0" fill="#d4e1f4"/><path d="m388.535156 113.921875c14.210938 14.597656 23.5 33.277344 26.566406 53.421875 6.46875-41.703125-14.4375-82.875-51.929687-102.257812-37.492187-19.378907-83.171875-12.628907-113.457031 16.765624l-.140625.738282c10.175781 1.941406 20.054687 5.1875 29.394531 9.660156 37.476562-16.277344 81.113281-7.644531 109.566406 21.671875zm0 0" fill="#b9f9ec"/><g fill="#1ae5be"><path d="m395.710938 76.957031c-41.640626-42.800781-110.0625-43.820312-152.960938-2.28125l6.964844 7.175781-9.828125-1.855468-.136719.742187 10.875 2.050781 6.054688 6.238282c34.953124-33.769532 90.640624-32.886719 124.503906 1.976562 33.867187 34.859375 33.136718 90.546875-1.628906 124.507813l-4.097657 3.929687-.152343.148438-.128907.128906 13.207031 13.210938.914063.949218.019531-.019531 4.125-3.953125c42.859375-41.605469 43.882813-110.078125 2.277344-152.941406zm0 0"/><path d="m398.480469 60.339844 21.601562-20.972656 13.929688 14.351562-21.597657 20.96875zm0 0"/><path d="m337.722656 29.960938 8.222656-28.960938 19.238282 5.460938-8.21875 28.957031zm0 0"/><path d="m267.960938 5.027344 19.390624-4.886719 7.359376 29.1875-19.390626 4.890625zm0 0"/><path d="m202.429688 47.496094 14.351562-13.929688 20.96875 21.597656-14.351562 13.933594zm0 0"/><path d="m398.449219 249.429688 14.351562-13.929688 20.96875 21.597656-14.347656 13.933594zm0 0"/><path d="m434.851562 198.558594 5.464844-19.238282 28.960938 8.226563-5.46875 19.238281zm0 0"/><path d="m433.359375 112.257812 29.1875-7.359374 4.890625 19.394531-29.1875 7.359375zm0 0"/></g><path d="m357.6875 195.210938c-2.328125-48.378907-31.148438-91.53125-74.945312-112.214844-43.796876-20.683594-95.429688-15.527344-134.273438 13.40625-10.414062-4.238282-21.5625-6.402344-32.808594-6.371094-48.226562.058594-87.308594 39.140625-87.359375 87.371094-.023437 10.242187 1.769531 20.410156 5.300781 30.03125-29.945312 24.445312-41.273437 65.085937-28.296874 101.5 12.980468 36.414062 47.457031 60.730468 86.117187 60.726562h227.96875c42.925781-.023437 80.058594-29.902344 89.261719-71.832031 9.207031-41.925781-11.992188-84.613281-50.960938-102.617187zm12.199219 133.539062c-13.363281 13.433594-31.550781 20.964844-50.5 20.910156h-227.972657c-31.382812-.019531-59.082031-20.523437-68.261718-50.539062-9.183594-30.011719 2.300781-62.503906 28.300781-80.082032 4.101563-2.777343 5.550781-8.140624 3.40625-12.605468-4.351563-9.058594-6.597656-18.984375-6.5625-29.03125.039063-37.1875 30.171875-67.324219 67.359375-67.371094 10.332031-.03125 20.527344 2.339844 29.78125 6.929688 3.53125 1.75 7.757812 1.265624 10.800781-1.242188 33.179688-27.296875 79.128907-33.003906 117.976563-14.65625 38.851562 18.351562 63.628906 57.464844 63.621094 100.429688v.4375c0 4.175781 2.59375 7.910156 6.5 9.371093 11.839843 4.429688 22.296874 11.917969 30.300781 21.699219l.007812.007812c23.253907 28.398438 21.195313 69.796876-4.761719 95.746094zm0 0" fill="#0635c9"/></svg>