<svg height="379pt" viewBox="0 -10 379.45876 379" width="379pt" xmlns="http://www.w3.org/2000/svg"><path d="m79.457031 182.316406c-.023437-18.792968 7.445313-36.820312 20.75-50.089844 3.199219-3.199218 6.695313-6.085937 10.441407-8.621093-16.023438-33.558594-1.804688-73.753907 31.753906-89.777344 1.316406-.625 2.648437-1.210937 4-1.753906-25.746094-10.292969-55.167969-3.75-74.128906 16.488281-18.957032 20.234375-23.570313 50.019531-11.625 75.042969-25.804688 17.425781-37.203126 49.660156-28.089844 79.4375 9.113281 29.773437 36.601562 50.105469 67.738281 50.101562h50c-39.117187.003907-70.835937-31.707031-70.839844-70.828125zm0 0" fill="#d4e1f4"/><g fill="#1ae5be"><path d="m13.046875 331.566406-10.117187 10.117188c-3.90625 3.90625-3.90625 10.238281 0 14.144531 3.90625 3.902344 10.238281 3.902344 14.140624 0l10.121094-10.121094c3.90625-3.90625 3.90625-10.238281 0-14.144531-3.90625-3.902344-10.238281-3.902344-14.144531.003906zm0 0"/><path d="m75.851562 331.558594-10.128906 10.121094c-3.910156 3.902343-3.914062 10.234374-.007812 14.144531 3.902344 3.90625 10.234375 3.910156 14.140625.007812l10.132812-10.121093c3.90625-3.902344 3.910157-10.234376.007813-14.144532-3.90625-3.90625-10.238282-3.910156-14.144532-.007812zm0 0"/><path d="m138.636719 331.566406-10.117188 10.117188c-3.90625 3.90625-3.90625 10.238281 0 14.144531 3.902344 3.902344 10.234375 3.902344 14.140625 0l10.121094-10.121094c3.90625-3.90625 3.90625-10.238281 0-14.144531-3.90625-3.902344-10.238281-3.902344-14.144531.003906zm0 0"/><path d="m201.441406 331.558594-10.128906 10.121094c-3.90625 3.902343-3.910156 10.234374-.007812 14.144531 3.902343 3.90625 10.234374 3.910156 14.140624.007812l10.132813-10.121093c3.90625-3.902344 3.910156-10.234376.007813-14.144532-3.90625-3.90625-10.238282-3.910156-14.144532-.007812zm0 0"/><path d="m264.230469 331.566406-10.121094 10.117188c-2.609375 2.5-3.664063 6.214844-2.765625 9.710937.902344 3.5 3.621094 6.242188 7.109375 7.171875 3.492187.929688 7.214844-.09375 9.734375-2.683594l.0625-.058593 10.121094-10.121094c2.589844-2.515625 3.625-6.226563 2.707031-9.71875-.914063-3.488281-3.640625-6.214844-7.132813-7.132813-3.492187-.914062-7.203124.121094-9.714843 2.714844zm0 0"/><path d="m71.394531 285.929688c-3.90625-3.902344-10.238281-3.898438-14.140625.007812l-10.121094 10.128906c-3.902343 3.910156-3.898437 10.242188.011719 14.144532 3.90625 3.902343 10.238281 3.898437 14.140625-.007813l10.121094-10.128906c3.902344-3.910157 3.898438-10.242188-.007812-14.144531zm0 0"/><path d="m134.199219 285.933594c-3.902344-3.902344-10.234375-3.902344-14.140625 0l-10.128906 10.132812c-3.941407 3.867188-4.003907 10.199219-.136719 14.140625 3.871093 3.941407 10.199219 4 14.144531.132813.042969-.042969.089844-.089844.132812-.132813l10.128907-10.128906c3.90625-3.90625 3.90625-10.238281 0-14.144531zm0 0"/><path d="m196.988281 285.929688c-3.910156-3.902344-10.238281-3.898438-14.144531.007812l-10.113281 10.128906c-3.90625 3.910156-3.902344 10.238282.003906 14.144532 3.90625 3.902343 10.238281 3.898437 14.144531-.007813l10.117188-10.128906c3.902344-3.910157 3.898437-10.242188-.007813-14.144531zm0 0"/><path d="m259.789062 285.933594c-3.902343-3.902344-10.234374-3.902344-14.140624 0l-10.128907 10.132812c-3.90625 3.902344-3.90625 10.234375 0 14.140625s10.238281 3.90625 14.140625 0l10.132813-10.128906c3.902343-3.90625 3.902343-10.238281-.003907-14.144531zm0 0"/></g><path d="m333.21875 109.234375c-2.324219-42.285156-27.636719-79.894531-65.933594-97.96875-38.296875-18.078125-83.421875-13.710937-117.542968 11.371094-9.027344-3.570313-18.648438-5.390625-28.351563-5.367188-25.082031.023438-48.59375 12.199219-63.085937 32.667969-14.492188 20.46875-18.164063 46.691406-9.851563 70.351562-1.84375 1.546876-3.617187 3.167969-5.316406 4.863282-23.121094 23.117187-30.039063 57.886718-17.527344 88.097656 12.515625 30.207031 41.992187 49.898438 74.6875 49.894531h198.332031c44.628906.011719 80.820313-36.15625 80.828125-80.785156v-.042969c-.09375-31.222656-18.066406-59.625-46.238281-73.082031zm8.429688 116.101563c-11.386719 11.445312-26.875 17.855468-43.019532 17.808593h-198.332031c-26.730469-.015625-50.320313-17.480469-58.144531-43.042969-7.820313-25.5625 1.957031-53.238281 24.101562-68.210937 4.105469-2.777344 5.554688-8.144531 3.40625-12.609375-3.703125-7.707031-5.609375-16.152344-5.582031-24.703125.035156-31.636719 25.675781-57.273437 57.3125-57.308594 8.789063-.027343 17.460937 1.988281 25.339844 5.890625 3.527343 1.742188 7.75 1.257813 10.789062-1.246094 28.484375-23.414062 67.914063-28.304687 101.257813-12.554687 33.339844 15.75 54.609375 49.3125 54.613281 86.1875v.378906c0 4.171875 2.589844 7.90625 6.5 9.367188 23.75 8.949219 39.496094 31.644531 39.566406 57.023437.046875 16.140625-6.367187 31.632813-17.808593 43.019532zm0 0" fill="#0635c9"/></svg>