<?xml version="1.0" encoding="UTF-8" standalone="no"?>
<!DOCTYPE svg PUBLIC "-//W3C//DTD SVG 1.1//EN" "http://www.w3.org/Graphics/SVG/1.1/DTD/svg11.dtd">
<svg version="1.1" xmlns="http://www.w3.org/2000/svg" xmlns:xlink="http://www.w3.org/1999/xlink" preserveAspectRatio="xMidYMid meet" viewBox="0 0 640 640" width="640" height="640"><defs><path d="M347.06 90.45L350.64 90.7L354.22 91.04L357.79 91.47L361.36 91.99L364.91 92.59L368.45 93.29L371.98 94.08L375.49 94.97L378.99 95.93L382.46 97L385.91 98.15L389.33 99.39L392.73 100.73L396.11 102.16L399.44 103.67L402.71 105.27L405.92 106.94L409.07 108.69L412.15 110.5L415.18 112.4L418.15 114.37L421.04 116.4L423.87 118.5L426.64 120.67L429.33 122.9L431.95 125.19L434.5 127.55L436.99 129.97L439.39 132.44L441.73 134.97L444 137.57L446.18 140.21L448.29 142.9L450.32 145.64L452.26 148.44L454.13 151.28L455.92 154.17L457.62 157.11L459.24 160.08L460.78 163.1L462.23 166.16L463.59 169.26L464.86 172.39L466.04 175.56L467.14 178.77L468.14 182L469.05 185.27L469.87 188.57L470.59 191.89L471.21 195.24L471.74 198.62L472.17 202.02L472.5 205.44L472.73 208.89L475.68 210.21L478.56 211.63L481.37 213.13L484.12 214.7L486.79 216.36L489.38 218.09L491.9 219.9L494.35 221.78L496.71 223.73L498.99 225.74L501.2 227.83L503.33 229.97L505.37 232.18L507.32 234.45L509.2 236.78L510.98 239.15L512.69 241.58L514.29 244.05L515.81 246.58L517.24 249.15L518.58 251.76L519.82 254.41L520.97 257.11L522.02 259.83L522.98 262.59L523.84 265.38L524.59 268.2L525.25 271.05L525.81 273.92L526.25 276.81L526.61 279.73L526.84 282.66L526.98 285.61L527 288.57L526.92 291.53L526.72 294.52L526.42 297.51L526 300.49L525.47 303.48L524.82 306.48L524.06 309.45L523.19 312.37L522.23 315.24L521.16 318.08L520 320.86L518.74 323.59L517.38 326.27L515.93 328.89L514.39 331.46L512.76 333.98L511.05 336.42L509.25 338.82L507.38 341.14L505.42 343.41L503.39 345.61L501.28 347.75L499.09 349.81L496.84 351.8L494.52 353.73L492.13 355.58L489.67 357.36L487.15 359.06L484.58 360.67L481.94 362.22L479.24 363.68L476.5 365.06L473.7 366.35L470.85 367.56L467.97 368.69L465.02 369.71L462.04 370.66L459.01 371.51L455.95 372.27L452.84 372.92L449.71 373.49L446.54 373.95L443.34 374.32L440.1 374.57L436.85 374.74L433.58 374.79L200.53 374.79L197.57 374.75L194.64 374.62L191.72 374.41L188.82 374.11L185.94 373.74L183.09 373.27L180.27 372.73L177.47 372.11L174.7 371.41L171.97 370.64L169.26 369.79L166.6 368.87L163.96 367.87L161.36 366.8L158.81 365.65L156.29 364.44L153.82 363.16L151.39 361.81L149 360.39L146.66 358.9L144.39 357.35L142.15 355.74L139.96 354.07L137.83 352.33L135.76 350.53L133.75 348.68L131.79 346.76L129.89 344.79L128.06 342.76L126.29 340.67L124.59 338.53L122.95 336.34L121.39 334.1L119.89 331.81L118.47 329.46L117.12 327.07L115.84 324.63L114.65 322.14L113.53 319.61L112.49 317.04L111.55 314.44L110.69 311.81L109.93 309.19L109.26 306.55L108.68 303.91L108.18 301.24L107.78 298.59L107.47 295.93L107.25 293.27L107.11 290.62L107.07 287.96L107.11 285.31L107.24 282.67L107.44 280.03L107.75 277.41L108.13 274.79L108.6 272.2L109.15 269.62L109.79 267.05L110.5 264.5L111.31 261.98L112.19 259.48L113.15 257.01L114.2 254.55L115.32 252.14L116.52 249.74L117.81 247.38L119.17 245.07L120.61 242.78L122.12 240.53L123.71 238.31L125.39 236.15L127.13 234.03L128.95 231.95L130.85 229.9L132.81 227.92L134.86 225.99L136.97 224.11L139.16 222.28L141.42 220.51L141.15 219.82L140.64 218.44L140.39 217.75L140.16 217.05L139.92 216.36L139.47 214.96L139.05 213.56L138.85 212.85L138.66 212.14L138.47 211.44L138.28 210.73L137.95 209.31L137.79 208.59L137.63 207.88L137.48 207.16L137.35 206.45L137.09 205.01L136.97 204.29L136.76 202.85L136.66 202.13L136.57 201.4L136.48 200.68L136.4 199.95L136.33 199.23L136.21 197.77L136.16 197.06L136.11 196.33L136.03 194.14L136.01 192.68L136.01 191.95L136.08 188.53L136.3 185.14L136.68 181.78L137.19 178.47L137.83 175.21L138.62 171.98L139.54 168.82L140.58 165.69L141.75 162.63L143.05 159.62L144.46 156.67L146 153.78L147.65 150.95L149.41 148.19L151.29 145.51L153.26 142.9L155.35 140.36L157.53 137.9L159.81 135.52L162.19 133.22L164.66 131.01L167.22 128.88L169.86 126.85L172.59 124.92L175.4 123.07L178.29 121.33L181.25 119.69L184.29 118.15L187.39 116.72L190.57 115.4L193.8 114.2L197.09 113.12L200.44 112.14L203.85 111.28L207.32 110.55L210.83 109.95L214.38 109.48L217.98 109.13L221.63 108.93L225.31 108.85L226.17 108.86L227.03 108.87L227.89 108.88L228.75 108.91L229.62 108.94L230.47 108.98L231.33 109.02L233.05 109.14L233.9 109.22L234.75 109.3L235.61 109.39L236.46 109.48L237.32 109.59L238.16 109.7L239.86 109.93L241.56 110.21L242.39 110.36L243.24 110.51L244.92 110.85L245.76 111.03L246.58 111.21L247.42 111.41L248.25 111.61L249.08 111.81L249.91 112.03L250.73 112.26L252.37 112.73L253.19 112.98L254.01 113.23L254.82 113.49L255.63 113.76L256.44 114.03L257.24 114.32L258.05 114.61L258.85 114.91L261.85 112.89L264.9 110.96L268 109.1L271.13 107.34L274.31 105.65L277.53 104.07L280.78 102.56L284.07 101.13L287.4 99.8L290.75 98.54L294.13 97.38L297.54 96.31L300.98 95.31L304.45 94.41L307.93 93.6L311.43 92.87L314.95 92.24L318.47 91.68L322.02 91.22L325.58 90.85L329.14 90.55L332.72 90.35L336.3 90.24L339.89 90.22L343.48 90.29L347.06 90.45ZM331.22 109.47L328.07 109.71L324.91 110.03L321.78 110.43L318.66 110.92L315.55 111.49L312.46 112.13L309.38 112.86L306.33 113.67L303.3 114.56L300.29 115.52L297.31 116.57L294.36 117.7L291.43 118.9L288.54 120.19L285.68 121.56L282.86 122.99L280.08 124.51L277.33 126.11L274.63 127.79L271.97 129.54L269.36 131.37L266.78 133.28L266.56 133.46L266.06 133.79L265.57 134.09L265.32 134.22L265.06 134.35L264.79 134.48L264.53 134.6L264.26 134.71L263.98 134.81L263.72 134.9L263.44 134.99L263.16 135.07L262.88 135.14L262.59 135.21L262.32 135.27L262.03 135.32L261.75 135.36L261.45 135.39L261.16 135.42L260.88 135.44L260.58 135.45L260.3 135.46L260.01 135.45L259.72 135.44L259.43 135.42L259.13 135.4L258.56 135.32L258.27 135.27L257.98 135.21L257.41 135.07L257.13 134.98L256.85 134.89L256.57 134.81L256.02 134.59L255.75 134.46L255.03 134.14L254.32 133.82L253.6 133.51L252.88 133.22L252.15 132.92L249.97 132.09L249.23 131.84L248.49 131.59L247.74 131.35L247 131.11L246.25 130.88L245.5 130.67L244.74 130.45L243.99 130.25L243.23 130.05L242.46 129.87L241.7 129.69L240.93 129.52L240.18 129.35L239.41 129.21L238.63 129.06L237.86 128.92L237.08 128.79L236.31 128.67L234.75 128.46L233.96 128.36L232.41 128.2L230.83 128.06L229.25 127.96L227.67 127.9L226.89 127.88L226.1 127.88L225.31 127.88L222.47 127.93L219.66 128.09L216.88 128.36L214.14 128.72L211.44 129.19L208.76 129.75L206.13 130.41L203.55 131.16L201.01 132L198.51 132.93L196.07 133.95L193.67 135.05L191.33 136.24L189.05 137.5L186.82 138.84L184.65 140.26L182.55 141.76L180.51 143.32L178.54 144.96L176.63 146.67L174.8 148.43L173.05 150.27L171.36 152.17L169.75 154.13L168.22 156.14L166.79 158.21L165.42 160.34L164.15 162.52L162.97 164.75L161.88 167.02L160.88 169.34L159.97 171.71L159.16 174.11L158.45 176.56L157.85 179.04L157.36 181.56L156.97 184.11L156.68 186.69L156.5 189.31L156.44 191.95L156.44 192.66L156.45 193.38L156.47 194.1L156.5 194.81L156.54 195.53L156.58 196.24L156.7 197.66L156.77 198.37L156.85 199.08L156.94 199.79L157.04 200.5L157.14 201.21L157.25 201.91L157.38 202.61L157.51 203.32L157.65 204.02L157.79 204.72L157.95 205.41L158.12 206.11L158.29 206.8L158.66 208.18L158.86 208.87L159.07 209.56L159.5 210.92L159.97 212.28L160.22 212.95L160.48 213.63L160.74 214.3L161.02 214.96L161.29 215.63L161.89 216.95L162.19 217.6L162.51 218.26L162.82 218.91L163.16 219.55L163.32 219.88L163.45 220.2L163.58 220.53L163.7 220.85L163.81 221.18L163.9 221.51L163.98 221.85L164.03 222.18L164.08 222.51L164.12 222.85L164.16 223.52L164.16 223.85L164.12 224.52L164.08 224.85L164.03 225.18L163.9 225.83L163.81 226.15L163.71 226.47L163.6 226.79L163.47 227.1L163.33 227.41L163.2 227.71L163.04 228.01L162.87 228.31L162.5 228.88L162.29 229.16L162.08 229.42L161.86 229.69L161.62 229.95L161.37 230.2L161.12 230.45L160.85 230.68L160.56 230.91L160.28 231.13L159.98 231.34L159.67 231.54L157.71 232.82L155.79 234.15L153.94 235.53L152.15 236.96L150.41 238.44L148.73 239.97L147.12 241.54L145.56 243.15L144.05 244.79L142.62 246.49L141.24 248.21L139.93 249.98L138.68 251.77L137.48 253.61L136.36 255.46L135.31 257.35L134.31 259.27L133.37 261.23L132.52 263.2L131.72 265.19L130.99 267.21L130.33 269.25L129.74 271.3L129.21 273.38L128.76 275.47L128.38 277.58L128.07 279.7L127.82 281.83L127.66 283.97L127.57 286.12L127.54 288.27L127.6 290.43L127.71 292.6L127.92 294.76L128.2 296.93L128.55 299.08L128.99 301.25L129.49 303.41L130.07 305.56L130.74 307.7L131.48 309.83L132.29 311.92L133.17 313.97L134.1 315.99L135.12 317.96L136.19 319.91L137.33 321.81L138.52 323.66L139.77 325.49L141.09 327.26L142.46 328.99L143.88 330.67L145.37 332.31L146.9 333.91L148.49 335.45L150.11 336.95L151.8 338.4L153.53 339.8L155.3 341.14L157.12 342.43L158.98 343.68L160.88 344.86L162.82 345.99L164.8 347.07L166.82 348.08L168.87 349.04L170.96 349.94L173.08 350.78L175.22 351.55L177.4 352.26L179.61 352.91L181.85 353.51L184.11 354.03L186.39 354.48L188.7 354.88L191.03 355.19L193.37 355.44L195.74 355.63L198.13 355.73L200.52 355.77L433.57 355.77L435.02 355.76L436.47 355.72L437.92 355.67L439.35 355.58L440.78 355.46L442.22 355.31L443.64 355.14L445.06 354.95L446.48 354.73L447.88 354.48L449.28 354.21L450.68 353.91L452.06 353.59L453.44 353.24L454.81 352.88L456.17 352.47L457.52 352.05L458.87 351.6L460.2 351.13L461.52 350.64L462.83 350.12L464.13 349.57L465.42 349.01L466.69 348.42L467.97 347.81L469.22 347.17L470.45 346.51L471.68 345.83L472.88 345.12L474.09 344.39L475.27 343.64L476.43 342.87L477.59 342.07L478.72 341.25L479.85 340.41L480.95 339.55L482.03 338.67L483.11 337.76L484.15 336.83L485.19 335.89L487.13 334.01L488.98 332.08L490.75 330.1L492.42 328.07L493.99 326L495.47 323.88L496.87 321.73L498.16 319.53L499.38 317.3L500.49 315.05L501.51 312.76L502.43 310.44L503.27 308.1L504.01 305.74L504.66 303.35L505.21 300.95L505.68 298.54L506.04 296.11L506.31 293.67L506.48 291.24L506.57 288.78L506.56 286.34L506.45 283.89L506.26 281.44L505.96 279L505.57 276.57L505.08 274.15L504.5 271.75L503.83 269.35L503.05 266.98L502.19 264.63L501.23 262.3L500.16 260L499.01 257.73L497.76 255.49L496.42 253.28L494.97 251.1L493.43 248.97L491.79 246.88L490.06 244.83L490.05 244.82L488.81 243.44L488.17 242.77L487.52 242.1L486.86 241.44L486.2 240.79L485.52 240.14L484.84 239.51L483.46 238.27L482.75 237.65L481.31 236.47L480.58 235.89L479.85 235.32L479.1 234.76L478.35 234.2L477.58 233.65L476.81 233.12L476.03 232.6L475.25 232.08L474.45 231.57L473.65 231.08L472.85 230.59L472.04 230.11L471.22 229.65L470.39 229.19L469.55 228.74L468.71 228.31L467.87 227.87L467.02 227.46L466.16 227.06L465.29 226.66L464.43 226.28L463.55 225.9L462.66 225.54L461.77 225.18L460.88 224.84L459.98 224.5L459.07 224.19L458.78 224.08L458.48 223.96L458.2 223.83L457.92 223.7L457.64 223.57L457.37 223.42L457.11 223.27L456.84 223.1L456.35 222.77L456.11 222.58L455.88 222.4L455.65 222.21L455.43 222.01L455.22 221.8L455.01 221.59L454.81 221.38L454.62 221.15L454.43 220.92L454.25 220.7L453.92 220.22L453.77 219.98L453.62 219.72L453.48 219.47L453.34 219.22L453.11 218.69L453 218.42L452.9 218.14L452.81 217.87L452.73 217.59L452.66 217.31L452.61 217.03L452.55 216.74L452.51 216.45L452.48 216.16L452.45 215.87L452.43 215.27L452.43 214.86L452.38 211.79L452.24 208.76L452 205.73L451.68 202.72L451.26 199.74L450.76 196.77L450.16 193.83L449.48 190.9L448.71 188.01L447.85 185.15L446.92 182.32L445.89 179.51L444.79 176.73L443.59 173.99L442.32 171.28L440.98 168.61L439.55 165.98L438.04 163.39L436.47 160.83L434.81 158.32L433.07 155.85L431.27 153.44L429.4 151.06L427.45 148.74L425.42 146.46L423.33 144.23L421.18 142.06L418.96 139.95L416.67 137.89L414.31 135.88L411.89 133.94L409.4 132.06L406.86 130.23L404.26 128.48L401.59 126.78L398.86 125.15L396.08 123.6L393.24 122.11L390.35 120.69L387.39 119.35L384.4 118.08L381.38 116.89L378.34 115.8L375.28 114.79L372.2 113.87L369.1 113.03L365.98 112.27L362.86 111.6L359.71 111.02L356.56 110.51L353.4 110.09L350.24 109.75L347.07 109.5L343.9 109.33L340.73 109.24L337.55 109.23L334.39 109.31L331.22 109.47Z" id="a2Xf6D8vkU"></path><path d="M178.81 416.46C178.81 440.5 198.37 460.06 222.4 460.06C246.43 460.06 265.99 440.5 265.99 416.46C265.99 397.85 243.88 363.81 234.35 350.06C228.94 342.21 215.86 342.21 210.46 350.06C200.93 363.81 178.81 397.85 178.81 416.46Z" id="a4t4Wuiqpf"></path><path d="M427.21 367.53C426.15 368.15 420.85 371.22 411.29 376.75C411.29 365.69 411.29 359.55 411.29 358.32C411.29 350.29 404.78 343.78 396.76 343.78C388.74 343.78 382.23 350.29 382.23 358.32C382.23 359.55 382.23 365.69 382.23 376.75C372.66 371.22 367.34 368.15 366.28 367.53C359.36 363.52 350.47 365.9 346.43 372.85C342.42 379.8 344.8 388.69 351.75 392.71C352.81 393.32 358.14 396.39 367.73 401.92C358.14 407.45 352.81 410.52 351.75 411.14C344.8 415.15 342.42 424.04 346.43 430.99C349.13 435.64 354.01 438.26 359.01 438.26C361.48 438.26 363.98 437.65 366.28 436.31C367.34 435.7 372.66 432.63 382.23 427.1C382.23 438.16 382.23 444.3 382.23 445.53C382.23 453.55 388.74 460.06 396.76 460.06C404.78 460.06 411.29 453.55 411.29 445.53C411.29 444.3 411.29 438.16 411.29 427.1C420.86 432.63 426.18 435.7 427.24 436.31C429.54 437.65 432.04 438.26 434.51 438.26C439.51 438.26 444.42 435.64 447.09 430.99C451.13 424.04 448.75 415.15 441.77 411.14C440.71 410.52 435.38 407.45 425.79 401.92C435.38 396.39 440.71 393.32 441.77 392.71C448.72 388.69 451.1 379.8 447.06 372.85C443.08 365.87 434.16 363.49 427.21 367.53Z" id="aiLNdzzhp"></path></defs><g><g><g><use xlink:href="#a2Xf6D8vkU" opacity="1" fill="#0635c9" fill-opacity="1"></use><g><use xlink:href="#a2Xf6D8vkU" opacity="1" fill-opacity="0" stroke="#000000" stroke-width="1" stroke-opacity="0"></use></g></g><g><use xlink:href="#a4t4Wuiqpf" opacity="1" fill="#2196f3" fill-opacity="1"></use><g><use xlink:href="#a4t4Wuiqpf" opacity="1" fill-opacity="0" stroke="#000000" stroke-width="1" stroke-opacity="0"></use></g></g><g><use xlink:href="#aiLNdzzhp" opacity="1" fill="#5193b1" fill-opacity="1"></use><g><use xlink:href="#aiLNdzzhp" opacity="1" fill-opacity="0" stroke="#000000" stroke-width="1" stroke-opacity="0"></use></g></g></g></g></svg>