<svg height="429pt" viewBox="-35 0 429 429.79967" width="429pt" xmlns="http://www.w3.org/2000/svg"><path d="m60.300781 182.199219c.050781-23.523438 11.730469-45.496094 31.199219-58.699219-8.042969-16.785156-8.765625-36.15625-2-53.496094s20.414062-31.097656 37.699219-38.003906c-25.738281-10.316406-55.171875-3.785156-74.125 16.453125-18.957031 20.242187-23.550781 50.039063-11.574219 75.046875-3.75 2.503906-7.234375 5.386719-10.398438 8.601562-20.289062 20.226563-26.378906 50.691407-15.429687 77.167969 10.949219 26.472657 36.777344 43.738281 65.429687 43.730469h38.796876l.203124-.898438c-34.398437-5.453124-59.742187-35.078124-59.800781-69.902343zm0 0" fill="#d4e1f4"/><path d="m279.5 263h-94.5v-20h94.5c33.585938.015625 60.816406-27.214844 60.800781-60.800781-.058593-25.386719-15.828125-48.089844-39.601562-57-3.90625-1.480469-6.492188-5.222657-6.5-9.398438v-.402343c.011719-36.863282-21.242188-70.425782-54.574219-86.171876-33.332031-15.746093-72.757812-10.847656-101.226562 12.574219-3.039063 2.515625-7.28125 2.988281-10.796876 1.199219-7.863281-3.902344-16.523437-5.921875-25.300781-5.898438-31.632812.03125-57.269531 25.664063-57.300781 57.296876-.023438 8.550781 1.890625 16.996093 5.601562 24.703124 2.125 4.460938.679688 9.808594-3.402343 12.597657-3.195313 2.214843-6.207031 4.691406-9 7.402343-17.382813 17.390626-22.582031 43.542969-13.167969 66.261719 9.410156 22.71875 31.578125 37.53125 56.167969 37.535157h38.800781v20h-38.800781c-32.691407-.007813-62.160157-19.710938-74.660157-49.917969-12.5-30.210938-5.566406-64.976563 17.5625-88.082031 1.699219-1.699219 3.5-3.296876 5.296876-4.898438-10.058594-28.554688-2.527344-60.359375 19.277343-81.363281 21.804688-21.007813 53.863281-27.355469 82.023438-16.238281 34.128906-25.074219 79.25-29.4375 117.550781-11.363282 38.296875 18.074219 63.613281 55.679688 65.949219 97.964844 28.15625 13.476562 46.113281 41.882812 46.199219 73.101562-.007813 44.675782-36.222657 80.890626-80.898438 80.898438zm0 0" fill="#0635c9"/><path d="m289.601562 299.800781h-7.601562l3.199219-3.199219c3.894531-3.894531 3.894531-10.207031 0-14.101562-3.890625-3.894531-10.207031-3.894531-14.097657 0l-17.300781 17.300781h-50l35.398438-35.300781h24.5c5.523437 0 10-4.476562 10-10s-4.476563-10-10-10h-4.5l5.402343-5.300781c3.890626-3.894531 3.890626-10.207031 0-14.097657-3.894531-3.894531-10.207031-3.894531-14.101562 0l-5.398438 5.296876v-4.5c-.015624-5.515626-4.484374-9.984376-10-10-5.515624.015624-9.984374 4.484374-10 10v24.5l-35.5 35.402343v-50.101562l17.296876-17.300781c3.894531-3.890626 3.894531-10.207032 0-14.097657-3.890626-3.894531-10.203126-3.894531-14.097657 0l-3.199219 3.199219v-7.601562c0-5.523438-4.476562-10-10-10-5.523437 0-10 4.476562-10 10v7.601562l-3.203124-3.199219c-3.890626-3.894531-10.203126-3.894531-14.097657 0-3.894531 3.890625-3.894531 10.207031 0 14.097657l17.300781 17.300781v49.902343l-35.300781-35.402343v-24.5c-.015625-5.515625-4.484375-9.984375-10-10-5.515625.015625-9.984375 4.484375-10 10v4.5l-5.300781-5.398438c-3.894531-3.894531-10.207031-3.894531-14.101562 0-3.890626 3.890625-3.890626 10.207031 0 14.097657l5.300781 5.402343h-4.5c-5.523438 0-10 4.476563-10 10 0 5.523438 4.476562 10 10 10h24.5l35.300781 35.5h-50.101562l-17.296876-17.300781c-3.894531-3.894531-10.207031-3.894531-14.101562 0s-3.894531 10.207031 0 14.101562l3.199219 3.199219h-7.597657c-5.523437 0-10 4.476563-10 10 0 5.523438 4.476563 10 10 10h7.597657l-3.199219 3.199219c-1.871094 1.867188-2.925781 4.40625-2.925781 7.050781s1.054687 5.179688 2.925781 7.050781c1.875 1.886719 4.4375 2.933594 7.101562 2.898438 2.652344-.011719 5.195313-1.050781 7.097657-2.898438l17.300781-17.300781h49.898438l-35.398438 35.300781h-24.5c-5.523438 0-10 4.476563-10 10 0 5.519532 4.476562 10 10 10h4.5l-5.398438 5.296876c-1.875 1.871093-2.925781 4.40625-2.925781 7.050781s1.050781 5.183593 2.925781 7.050781c1.875 1.890625 4.4375 2.933594 7.097657 2.898438 2.652343-.007813 5.199219-1.050782 7.101562-2.898438l5.398438-5.300781v4.5c.015625 5.515625 4.484375 9.984375 10 10 5.515625-.015625 9.984375-4.484375 10-10v-24.5l35.5-35.300781v50.101562l-17.300781 17.300781c-3.890626 3.890625-3.890626 10.207031 0 14.097657 3.894531 3.894531 10.207031 3.894531 14.101562 0l3.199219-3.199219v7.601562c0 5.523438 4.476562 10 10 10 5.523437 0 10-4.476562 10-10v-7.601562l3.199219 3.199219c1.878906 1.890624 4.441406 2.9375 7.101562 2.902343 2.652344-.011719 5.199219-1.050781 7.101562-2.902343 1.871094-1.867188 2.921876-4.402344 2.921876-7.046876 0-2.648437-1.050782-5.183593-2.921876-7.050781l-17.5-17.300781v-49.898438l35.296876 35.398438v24.5c.019531 5.515625 4.484374 9.984375 10 10 5.519531-.015625 9.984374-4.484375 10-10v-4.5l5.300781 5.398438c1.875 1.890624 4.4375 2.9375 7.101562 2.902343 2.652344-.011719 5.199219-1.050781 7.097657-2.902343 1.875-1.867188 2.925781-4.402344 2.925781-7.046876 0-2.648437-1.050781-5.183593-2.925781-7.050781l-5.296876-5.402343h4.5c5.523438 0 10-4.476563 10-10 0-5.523438-4.476562-10-10-10h-24.5l-35.300781-35.5h50.097657l17.300781 17.300781c1.875 1.890625 4.4375 2.9375 7.101562 2.902343 2.652344-.011718 5.199219-1.050781 7.097657-2.902343 1.875-1.867188 2.925781-4.40625 2.925781-7.050781 0-2.644532-1.050781-5.179688-2.925781-7.046876l-3.199219-3.203124h7.601562c5.515625-.015626 9.984375-4.484376 10-10-.066406-5.585938-4.609375-10.085938-10.199219-10.097657zm0 0" fill="#1ae5be"/></svg>