<svg height="479pt" viewBox="0 -60 479.98638 479" width="479pt" xmlns="http://www.w3.org/2000/svg"><path d="m70.007812 189.296875c.007813-24.449219 12.148438-47.300781 32.402344-61-16.652344-34.867187-1.882812-76.632813 32.988282-93.285156l.109374-.054688c-34.898437-16.558593-76.617187-1.691406-93.175781 33.207031-9.03125 19.035157-9.003906 41.125.078125 60.132813-33.6875 22.761719-42.542968 68.515625-19.785156 102.203125 13.6875 20.253906 36.535156 32.394531 60.984375 32.398438h60c-40.648437 0-73.601563-32.953126-73.601563-73.601563zm0 0" fill="#d4e1f4"/><path d="m285.1875 293.71875h-91.835938v20h91.78125c5.023438.015625 9.835938 2.023438 13.378907 5.585938 5.171875 5.183593 5.171875 13.570312 0 18.753906-3.359375 3.359375-8.808594 3.363281-12.167969 0h-.003906c-1.90625-1.90625-1.90625-5 0-6.90625l-14.140625-14.144532c-9.71875 9.71875-9.722657 25.476563-.003907 35.199219h.003907c11.171875 11.171875 29.285156 11.171875 40.460937 0 12.964844-12.996093 12.964844-34.039062 0-47.039062-7.277344-7.308594-17.160156-11.429688-27.472656-11.449219zm0 0" fill="#1ae5be"/><path d="m442.617188 146.367188c-9.421876-.027344-18.46875 3.71875-25.117188 10.402343-11.875 11.878907-11.875 31.132813 0 43.011719l14.144531-14.140625c-4.070312-4.070313-4.070312-10.664063 0-14.730469 6.058594-6.0625 15.886719-6.0625 21.949219 0 8.539062 8.558594 8.539062 22.414063 0 30.972656-5.90625 5.90625-13.449219 8.558594-23.082031 8.101563-.15625-.007813-.316407-.011719-.472657-.011719h-240.890624v20h240.660156c.949218.042969 1.890625.0625 2.820312.0625 14 0 25.796875-4.703125 35.105469-14.007812 16.335937-16.375 16.335937-42.882813 0-59.257813-6.648437-6.679687-15.691406-10.425781-25.117187-10.402343zm0 0" fill="#1ae5be"/><path d="m380.648438 252.886719-297.039063.011719c-35.132813-.019532-63.601563-28.515626-63.582031-63.648438.011718-21.113281 10.496094-40.84375 27.988281-52.671875 4.101563-2.777344 5.550781-8.136719 3.410156-12.605469-3.875-8.058594-5.875-16.890625-5.847656-25.832031.039063-33.089844 26.851563-59.902344 59.941406-59.941406 9.1875-.03125 18.257813 2.082031 26.488281 6.167969 3.53125 1.753906 7.761719 1.265624 10.800782-1.238282 42.421875-34.878906 105.085937-28.765625 139.964844 13.652344 14.625 17.792969 22.625 40.105469 22.628906 63.136719v.402343c0 4.171876 2.589844 7.90625 6.5 9.367188 5.988281 2.234375 11.601562 5.363281 16.65625 9.277344l12.242187-15.8125c-4.824219-3.738282-10.042969-6.933594-15.5625-9.53125-3.492187-65.875-59.726562-116.449219-125.601562-112.957032-23.335938 1.238282-45.796875 9.292969-64.601563 23.167969-9.386718-3.75-19.410156-5.660156-29.515625-5.632812-44.179687.027343-79.96875 35.863281-79.941406 80.042969.007813 9.109374 1.570313 18.152343 4.621094 26.738281-1.984375 1.648437-3.886719 3.378906-5.710938 5.199219-32.648437 32.648437-32.652343 85.578124-.007812 118.230468 15.683593 15.679688 36.949219 24.492188 59.128906 24.488282l296.984375-.011719c7.015625.023437 13.734375 2.828125 18.683594 7.800781 7.523437 7.546875 7.523437 19.757812 0 27.300781-5.253906 5.238281-13.757813 5.238281-19.011719 0-3.417969-3.40625-3.425781-8.9375-.019531-12.355469l.015625-.015624-14.132813-14.152344c-11.230468 11.214844-11.242187 29.410156-.023437 40.640625v.003906l.023437.023437c13.070313 13.035157 34.226563 13.035157 47.300782 0 15.316406-15.363281 15.316406-40.21875 0-55.582031-8.683594-8.722656-20.472657-13.636719-32.78125-13.664062zm0 0" fill="#0635c9"/><path d="m371.539062 175.019531c12.964844-12.996093 12.964844-34.039062 0-47.039062-11.171874-11.171875-29.289062-11.171875-40.460937 0-9.703125 9.726562-9.703125 25.472656 0 35.199219l14.140625-14.140626c-1.902344-1.910156-1.902344-5 0-6.910156 3.363281-3.363281 8.8125-3.363281 12.175781 0 5.179688 5.175782 5.179688 13.574219 0 18.753906-3.527343 3.550782-8.320312 5.558594-13.324219 5.585938h-91.835937v20h91.890625c10.292969-.03125 20.152344-4.152344 27.414062-11.449219zm0 0" fill="#1ae5be"/></svg>